<?xml version="1.0" encoding="UTF-8"?>
<!DOCTYPE svg PUBLIC "-//W3C//DTD SVG 1.1//EN" "http://www.w3.org/Graphics/SVG/1.1/DTD/svg11.dtd">
<svg xmlns="http://www.w3.org/2000/svg" version="1.1" width="640px" height="480px" style="shape-rendering:geometricPrecision; text-rendering:geometricPrecision; image-rendering:optimizeQuality; fill-rule:evenodd; clip-rule:evenodd" xmlns:xlink="http://www.w3.org/1999/xlink">
<g><path style="opacity:1" fill="#fefefe" d="M -0.5,-0.5 C 212.833,-0.5 426.167,-0.5 639.5,-0.5C 639.5,159.5 639.5,319.5 639.5,479.5C 426.167,479.5 212.833,479.5 -0.5,479.5C -0.5,319.5 -0.5,159.5 -0.5,-0.5 Z"/></g>
<g><path style="opacity:1" fill="#1f77b3" d="M 328.5,74.5 C 328.5,129.5 328.5,184.5 328.5,239.5C 311.345,291.786 294.345,344.119 277.5,396.5C 276.167,396.5 274.833,396.5 273.5,396.5C 195.602,363.102 159.102,303.768 164,218.5C 168.61,188.636 179.776,161.636 197.5,137.5C 231.508,96.3288 275.175,75.3288 328.5,74.5 Z"/></g>
<g><path style="opacity:1" fill="#2ca02c" d="M 328.5,74.5 C 395.651,76.4728 445.151,106.806 477,165.5C 498.599,210.619 500.099,256.285 481.5,302.5C 430.381,281.774 379.381,260.774 328.5,239.5C 328.5,184.5 328.5,129.5 328.5,74.5 Z"/></g>
<g><path style="opacity:1" fill="#3f3f3f" d="M 502.5,139.5 C 501.842,140.398 501.176,141.398 500.5,142.5C 499.167,138.833 499.167,135.167 500.5,131.5C 501.08,133.637 502.08,135.47 503.5,137C 502.748,137.671 502.414,138.504 502.5,139.5 Z"/></g>
<g><path style="opacity:1" fill="#464646" d="M 487.5,141.5 C 485.511,142.887 483.678,142.553 482,140.5C 482.005,129.833 482.672,129.833 484,140.5C 485.011,141.337 486.178,141.67 487.5,141.5 Z"/></g>
<g><path style="opacity:1" fill="#1a1a1a" d="M 487.5,141.5 C 488.137,138.544 488.637,135.544 489,132.5C 489.667,135.167 489.667,137.833 489,140.5C 488.617,141.056 488.117,141.389 487.5,141.5 Z"/></g>
<g><path style="opacity:1" fill="#535353" d="M 490.5,134.5 C 497.232,133.482 499.232,136.148 496.5,142.5C 495.041,133.39 493.374,133.39 491.5,142.5C 490.52,139.914 490.187,137.247 490.5,134.5 Z"/></g>
<g><path style="opacity:1" fill="#4c4c4c" d="M 507.5,134.5 C 513.853,133.867 515.853,136.534 513.5,142.5C 512.041,133.39 510.374,133.39 508.5,142.5C 507.52,139.914 507.187,137.247 507.5,134.5 Z"/></g>
<g><path style="opacity:1" fill="#383838" d="M 536.5,134.5 C 541.041,134.331 541.374,134.998 537.5,136.5C 539.053,137.439 540.387,138.606 541.5,140C 540.591,142.319 538.925,142.986 536.5,142C 538.044,141.71 539.377,141.044 540.5,140C 536.801,139.513 535.468,137.679 536.5,134.5 Z"/></g>
<g><path style="opacity:1" fill="#525252" d="M 502.5,139.5 C 504.196,139.685 505.529,140.519 506.5,142C 504.588,142.279 503.254,141.446 502.5,139.5 Z"/></g>
<g><path style="opacity:1" fill="#4a4a4a" d="M 524.5,134.5 C 526.067,135.681 526.901,137.347 527,139.5C 528.141,133.617 529.808,133.284 532,138.5C 532.219,137.062 532.719,135.729 533.5,134.5C 533.833,134.833 534.167,135.167 534.5,135.5C 533.811,137.444 533.311,139.444 533,141.5C 532.586,141.957 532.086,142.291 531.5,142.5C 530.757,141.092 529.923,139.759 529,138.5C 528.71,140.044 528.044,141.377 527,142.5C 525.659,139.978 524.826,137.311 524.5,134.5 Z"/></g>
<g><path style="opacity:1" fill="#222222" d="M 517.5,134.5 C 519.144,134.286 520.644,134.62 522,135.5C 522.758,137.769 522.591,139.936 521.5,142C 519.888,142.72 518.388,142.554 517,141.5C 516.297,139.071 516.463,136.738 517.5,134.5 Z"/></g>
<g><path style="opacity:1" fill="#eeeeee" d="M 518.5,135.5 C 520.484,135.484 521.484,136.484 521.5,138.5C 520.167,142.5 518.833,142.5 517.5,138.5C 517.685,137.416 518.018,136.416 518.5,135.5 Z"/></g>
<g><path style="opacity:1" fill="#000200" d="M 399.5,179.5 C 400.209,178.596 401.209,178.263 402.5,178.5C 401.989,182.03 402.656,185.196 404.5,188C 402.833,188.667 401.167,188.667 399.5,188C 400.684,186.82 401.351,185.32 401.5,183.5C 401.415,181.667 400.748,180.334 399.5,179.5 Z"/></g>
<g><path style="opacity:1" fill="#1a4b18" d="M 395.5,182.5 C 394.322,181.001 392.655,180.001 390.5,179.5C 393.507,177.9 395.841,178.567 397.5,181.5C 397.043,182.298 396.376,182.631 395.5,182.5 Z"/></g>
<g><path style="opacity:1" fill="#0e220c" d="M 423.5,179.5 C 420.833,180.5 420.833,181.5 423.5,182.5C 422.791,183.404 421.791,183.737 420.5,183.5C 420.5,181.833 420.5,180.167 420.5,178.5C 421.791,178.263 422.791,178.596 423.5,179.5 Z"/></g>
<g><path style="opacity:1" fill="#7a8a94" d="M 197.5,137.5 C 179.776,161.636 168.61,188.636 164,218.5C 159.102,303.768 195.602,363.102 273.5,396.5C 272.962,398.117 272.629,399.784 272.5,401.5C 217.001,382.579 180.834,344.913 164,288.5C 150.355,234.772 160.021,185.772 193,141.5C 194.371,139.959 195.871,138.625 197.5,137.5 Z"/></g>
<g><path style="opacity:1" fill="#112d10" d="M 395.5,182.5 C 398.358,185.8 397.525,187.8 393,188.5C 392.167,188.167 391.333,187.833 390.5,187.5C 391.582,187.251 392.915,187.085 394.5,187C 394.957,186.586 395.291,186.086 395.5,185.5C 391.665,184.004 391.665,183.004 395.5,182.5 Z"/></g>
<g><path style="opacity:1" fill="#0d1c09" d="M 411.5,178.5 C 418.737,179.272 419.403,182.106 413.5,187C 414.833,187.333 416.167,187.667 417.5,188C 415.421,188.808 413.421,188.641 411.5,187.5C 413.167,185.5 414.833,183.5 416.5,181.5C 415.38,179.404 413.88,179.07 412,180.5C 411.536,179.906 411.369,179.239 411.5,178.5 Z"/></g>
<g><path style="opacity:1" fill="#195018" d="M 423.5,179.5 C 425.068,181.931 426.568,181.931 428,179.5C 428.617,180.449 428.451,181.282 427.5,182C 429.885,182.055 431.219,183.222 431.5,185.5C 429.412,189.516 427.579,189.182 426,184.5C 425.617,185.056 425.117,185.389 424.5,185.5C 424.414,184.504 424.748,183.671 425.5,183C 424.906,182.536 424.239,182.369 423.5,182.5C 420.833,181.5 420.833,180.5 423.5,179.5 Z"/></g>
<g><path style="opacity:1" fill="#0f320f" d="M 424.5,185.5 C 424.539,186.756 424.039,187.756 423,188.5C 422.415,187.002 422.915,186.002 424.5,185.5 Z"/></g>
<g><path style="opacity:1" fill="#4b4b4b" d="M 109.5,205.5 C 110.5,205.5 111.5,205.5 112.5,205.5C 113.833,212.167 115.167,212.167 116.5,205.5C 117.5,205.5 118.5,205.5 119.5,205.5C 119.82,208.898 119.487,212.232 118.5,215.5C 117.692,213.577 117.192,211.577 117,209.5C 115.445,214.768 113.779,214.768 112,209.5C 111.808,211.577 111.308,213.577 110.5,215.5C 109.513,212.232 109.18,208.898 109.5,205.5 Z"/></g>
<g><path style="opacity:1" fill="#353535" d="M 134.5,207.5 C 137.95,206.756 139.616,208.09 139.5,211.5C 137.712,211.215 136.045,211.548 134.5,212.5C 134.709,213.086 135.043,213.586 135.5,214C 137.085,214.085 138.418,214.251 139.5,214.5C 132.789,215.788 131.123,213.455 134.5,207.5 Z"/></g>
<g><path style="opacity:1" fill="#1c1c1c" d="M 124.5,214.5 C 121.505,216.017 120.339,215.017 121,211.5C 126.666,210.739 126.832,209.572 121.5,208C 123.112,207.28 124.612,207.446 126,208.5C 126.667,210.833 126.667,213.167 126,215.5C 125.617,214.944 125.117,214.611 124.5,214.5 Z"/></g>
<g><path style="opacity:1" fill="#efefef" d="M 135.5,208.5 C 136.756,208.461 137.756,208.961 138.5,210C 137.167,210.667 135.833,210.667 134.5,210C 135.056,209.617 135.389,209.117 135.5,208.5 Z"/></g>
<g><path style="opacity:1" fill="#2b2b2b" d="M 145.5,214.5 C 144.489,212.801 143.155,211.301 141.5,210C 141.667,209.5 141.833,209 142,208.5C 142.991,209.939 144.324,210.939 146,211.5C 146.74,212.749 146.573,213.749 145.5,214.5 Z"/></g>
<g><path style="opacity:1" fill="#dcdcdc" d="M 124.5,214.5 C 120.925,213.793 120.758,212.793 124,211.5C 125.683,212.176 125.85,213.176 124.5,214.5 Z"/></g>
<g><path style="opacity:1" fill="#262626" d="M 145.5,214.5 C 144.292,215.782 142.958,215.782 141.5,214.5C 142.557,214.094 143.891,214.094 145.5,214.5 Z"/></g>
<g><path style="opacity:1" fill="#0b1620" d="M 218.5,217.5 C 220.527,217.338 222.527,217.505 224.5,218C 219.46,218.744 219.293,219.91 224,221.5C 225.45,226.885 223.617,228.552 218.5,226.5C 219.582,226.251 220.915,226.085 222.5,226C 224.009,222.331 222.676,220.831 218.5,221.5C 218.5,220.167 218.5,218.833 218.5,217.5 Z"/></g>
<g><path style="opacity:1" fill="#0f273a" d="M 232.5,217.5 C 238.786,218.315 240.12,221.481 236.5,227C 234.567,227.783 233.067,227.283 232,225.5C 231.398,222.779 231.565,220.113 232.5,217.5 Z"/></g>
<g><path style="opacity:1" fill="#1d71ac" d="M 233.5,218.5 C 235.89,218.685 236.89,220.018 236.5,222.5C 236.658,224.319 235.991,225.652 234.5,226.5C 233.52,223.914 233.187,221.247 233.5,218.5 Z"/></g>
<g><path style="opacity:1" fill="#0c1721" d="M 213.5,217.5 C 214.5,217.5 215.5,217.5 216.5,217.5C 216.244,219.792 216.577,221.959 217.5,224C 216.929,225.205 216.262,226.372 215.5,227.5C 214.614,226.675 214.281,225.675 214.5,224.5C 213.022,224.762 211.689,224.429 210.5,223.5C 211.557,223.094 212.891,223.094 214.5,223.5C 214.483,221.435 214.15,219.435 213.5,217.5 Z"/></g>
<g><path style="opacity:1" fill="#113855" d="M 246.5,219.5 C 247.749,220.778 249.249,221.778 251,222.5C 252.254,226.111 251.088,227.611 247.5,227C 246.809,225.933 246.309,224.766 246,223.5C 245.667,223.833 245.333,224.167 245,224.5C 245.134,222.811 245.634,221.144 246.5,219.5 Z"/></g>
<g><path style="opacity:1" fill="#fe7e0e" d="M 328.5,239.5 C 379.381,260.774 430.381,281.774 481.5,302.5C 470.489,328.17 454.489,350.17 433.5,368.5C 389.468,401.666 340.468,412.166 286.5,400C 283.282,399.1 280.282,397.933 277.5,396.5C 294.345,344.119 311.345,291.786 328.5,239.5 Z"/></g>
<g><path style="opacity:1" fill="#2c1703" d="M 349.5,323.5 C 356.737,324.272 357.403,327.106 351.5,332C 352.833,332.333 354.167,332.667 355.5,333C 353.421,333.808 351.421,333.641 349.5,332.5C 351.167,330.5 352.833,328.5 354.5,326.5C 353.38,324.404 351.88,324.07 350,325.5C 349.536,324.906 349.369,324.239 349.5,323.5 Z"/></g>
<g><path style="opacity:1" fill="#351b05" d="M 376.5,328.5 C 375.041,328.433 373.708,328.766 372.5,329.5C 370.377,324.989 371.711,323.155 376.5,324C 375.552,324.483 374.552,324.649 373.5,324.5C 373.5,325.5 373.5,326.5 373.5,327.5C 374.791,327.263 375.791,327.596 376.5,328.5 Z"/></g>
<g><path style="opacity:1" fill="#351b05" d="M 383.5,324.5 C 380.833,325.5 380.833,326.5 383.5,327.5C 382.791,328.404 381.791,328.737 380.5,328.5C 380.5,326.833 380.5,325.167 380.5,323.5C 381.791,323.263 382.791,323.596 383.5,324.5 Z"/></g>
<g><path style="opacity:1" fill="#a75411" d="M 383.5,324.5 C 384.833,325.5 384.833,326.5 383.5,327.5C 380.833,326.5 380.833,325.5 383.5,324.5 Z"/></g>
<g><path style="opacity:1" fill="#2b1703" d="M 359.5,324.5 C 360.884,323.199 362.384,323.199 364,324.5C 364.202,327.259 364.036,330.092 363.5,333C 361.833,333.667 360.167,333.667 358.5,333C 360.619,332.902 362.286,332.069 363.5,330.5C 362.91,329.201 361.91,328.368 360.5,328C 364.422,326.047 364.088,324.881 359.5,324.5 Z"/></g>
<g><path style="opacity:1" fill="#93490b" d="M 390.5,328.5 C 389.516,333.658 388.683,333.658 388,328.5C 387.517,329.448 387.351,330.448 387.5,331.5C 386.778,331.082 386.278,330.416 386,329.5C 385.617,330.056 385.117,330.389 384.5,330.5C 385.391,328.391 386.558,326.391 388,324.5C 388.617,325.449 388.451,326.282 387.5,327C 388.737,327.232 389.737,327.732 390.5,328.5 Z"/></g>
<g><path style="opacity:1" fill="#df6e0c" d="M 376.5,328.5 C 376.5,329.833 376.5,331.167 376.5,332.5C 374.027,332.912 372.694,331.912 372.5,329.5C 373.708,328.766 375.041,328.433 376.5,328.5 Z"/></g>
<g><path style="opacity:1" fill="#351b05" d="M 376.5,328.5 C 378.582,329.585 378.916,331.085 377.5,333C 375.833,333.667 374.167,333.667 372.5,333C 371.209,331.708 371.209,330.542 372.5,329.5C 372.694,331.912 374.027,332.912 376.5,332.5C 376.5,331.167 376.5,329.833 376.5,328.5 Z"/></g>
<g><path style="opacity:1" fill="#502807" d="M 384.5,330.5 C 384.539,331.756 384.039,332.756 383,333.5C 382.415,332.002 382.915,331.002 384.5,330.5 Z"/></g>
<g><path style="opacity:1" fill="#341b05" d="M 390.5,328.5 C 391.598,329.601 391.765,330.934 391,332.5C 389.244,333.985 388.077,333.652 387.5,331.5C 387.351,330.448 387.517,329.448 388,328.5C 388.683,333.658 389.516,333.658 390.5,328.5 Z"/></g>
<g><path style="opacity:1" fill="#a08975" d="M 433.5,368.5 C 397.742,399.364 356.075,413.197 308.5,410C 298.124,408.317 287.79,406.317 277.5,404C 275.509,403.626 273.842,402.793 272.5,401.5C 272.629,399.784 272.962,398.117 273.5,396.5C 274.833,396.5 276.167,396.5 277.5,396.5C 280.282,397.933 283.282,399.1 286.5,400C 340.468,412.166 389.468,401.666 433.5,368.5 Z"/></g>
<g><path style="opacity:1" fill="#666666" d="M 443.5,397.5 C 444.787,398.871 445.453,400.705 445.5,403C 445.167,404.833 444.833,406.667 444.5,408.5C 443.511,404.893 443.177,401.226 443.5,397.5 Z"/></g>
<g><path style="opacity:1" fill="#393939" d="M 414.5,401.5 C 417.676,399.727 419.343,400.727 419.5,404.5C 413.304,404.574 412.97,405.741 418.5,408C 414.652,408.987 412.652,407.487 412.5,403.5C 411.167,403.5 409.833,403.5 408.5,403.5C 408.785,405.288 408.452,406.955 407.5,408.5C 406.513,405.232 406.18,401.898 406.5,398.5C 408.527,398.338 410.527,398.505 412.5,399C 411.207,399.49 409.873,399.657 408.5,399.5C 408.5,400.5 408.5,401.5 408.5,402.5C 410.621,402.675 412.621,402.341 414.5,401.5 Z"/></g>
<g><path style="opacity:1" fill="#121212" d="M 428.5,401.5 C 427.79,403.746 427.29,406.08 427,408.5C 425.333,399.167 423.667,399.167 422,408.5C 421.503,405.854 421.336,403.187 421.5,400.5C 423.903,400.448 426.236,400.781 428.5,401.5 Z"/></g>
<g><path style="opacity:1" fill="#e0e0e0" d="M 414.5,401.5 C 416.103,401.312 417.437,401.812 418.5,403C 416.537,403.844 415.204,403.344 414.5,401.5 Z"/></g>
<g><path style="opacity:1" fill="#151515" d="M 428.5,401.5 C 429.542,400.209 430.708,400.209 432,401.5C 432.667,403.833 432.667,406.167 432,408.5C 431.667,406.5 431.333,404.5 431,402.5C 430.329,401.748 429.496,401.414 428.5,401.5 Z"/></g>
<g><path style="opacity:1" fill="#212121" d="M 448.5,400.5 C 451.95,399.756 453.616,401.09 453.5,404.5C 451.712,404.215 450.045,404.548 448.5,405.5C 448.709,406.086 449.043,406.586 449.5,407C 451.085,407.085 452.418,407.251 453.5,407.5C 451.926,408.631 450.259,408.798 448.5,408C 447.221,405.502 447.221,403.002 448.5,400.5 Z"/></g>
<g><path style="opacity:1" fill="#f3f3f3" d="M 449.5,401.5 C 450.756,401.461 451.756,401.961 452.5,403C 451.167,403.667 449.833,403.667 448.5,403C 449.056,402.617 449.389,402.117 449.5,401.5 Z"/></g>
<g><path style="opacity:1" fill="#3e3e3e" d="M 439.5,401.5 C 440.117,401.611 440.617,401.944 441,402.5C 441.495,404.473 441.662,406.473 441.5,408.5C 439.473,408.662 437.473,408.495 435.5,408C 434.978,407.439 434.645,406.772 434.5,406C 436.09,404.368 437.756,402.868 439.5,401.5 Z"/></g>
<g><path style="opacity:1" fill="#e5e5e5" d="M 436.5,404.5 C 439.957,404.667 440.29,405.667 437.5,407.5C 436.614,406.675 436.281,405.675 436.5,404.5 Z"/></g>
<g><path style="opacity:1" fill="#404040" d="M 456.5,400.5 C 461.041,400.331 461.374,400.998 457.5,402.5C 463.124,406.915 462.457,408.582 455.5,407.5C 456.687,407.446 458.02,407.113 459.5,406.5C 457.947,405.561 456.613,404.394 455.5,403C 455.743,402.098 456.077,401.265 456.5,400.5 Z"/></g>
</svg>
