<?xml version="1.0" encoding="UTF-8"?>
<!DOCTYPE svg PUBLIC "-//W3C//DTD SVG 1.1//EN" "http://www.w3.org/Graphics/SVG/1.1/DTD/svg11.dtd">
<svg xmlns="http://www.w3.org/2000/svg" version="1.1" width="640px" height="480px" style="shape-rendering:geometricPrecision; text-rendering:geometricPrecision; image-rendering:optimizeQuality; fill-rule:evenodd; clip-rule:evenodd" xmlns:xlink="http://www.w3.org/1999/xlink">
<g><path style="opacity:1" fill="#fefefe" d="M -0.5,-0.5 C 212.833,-0.5 426.167,-0.5 639.5,-0.5C 639.5,159.5 639.5,319.5 639.5,479.5C 426.167,479.5 212.833,479.5 -0.5,479.5C -0.5,319.5 -0.5,159.5 -0.5,-0.5 Z"/></g>
<g><path style="opacity:1" fill="#535353" d="M 259.5,34.5 C 260.805,36.3972 261.471,38.7305 261.5,41.5C 261.167,43.8333 260.833,46.1667 260.5,48.5C 259.507,43.8804 259.173,39.2137 259.5,34.5 Z"/></g>
<g><path style="opacity:1" fill="#2b2b2b" d="M 343.5,34.5 C 344.805,36.3972 345.471,38.7305 345.5,41.5C 345.167,43.8333 344.833,46.1667 344.5,48.5C 343.402,47.3845 342.235,47.3845 341,48.5C 337.703,46.8419 336.703,44.1752 338,40.5C 339.396,38.4732 341.062,38.1398 343,39.5C 343.494,37.8659 343.66,36.1992 343.5,34.5 Z"/></g>
<g><path style="opacity:1" fill="#252525" d="M 356.5,39.5 C 355.167,42.1667 355.167,44.8333 356.5,47.5C 355.85,47.8039 355.183,48.1373 354.5,48.5C 353.167,43.8333 353.167,39.1667 354.5,34.5C 355.17,36.2914 355.837,37.9581 356.5,39.5 Z"/></g>
<g><path style="opacity:1" fill="#0a0a0a" d="M 219.5,35.5 C 225.662,34.1555 227.662,36.3222 225.5,42C 223.866,42.4935 222.199,42.6602 220.5,42.5C 220.662,44.5273 220.495,46.5273 220,48.5C 219.501,44.1794 219.334,39.8461 219.5,35.5 Z"/></g>
<g><path style="opacity:1" fill="#dadada" d="M 220.5,36.5 C 224.676,35.8307 226.009,37.3307 224.5,41C 223.207,41.49 221.873,41.6567 220.5,41.5C 220.5,39.8333 220.5,38.1667 220.5,36.5 Z"/></g>
<g><path style="opacity:1" fill="#373737" d="M 289.5,38.5 C 291.458,38.908 293.458,39.2413 295.5,39.5C 294.372,40.2621 293.205,40.9288 292,41.5C 291.814,43.9005 291.314,46.2338 290.5,48.5C 289.513,45.2317 289.18,41.8984 289.5,38.5 Z"/></g>
<g><path style="opacity:1" fill="#282828" d="M 240.5,38.5 C 245.989,38.504 247.822,41.1707 246,46.5C 243.667,49.1667 241.333,49.1667 239,46.5C 238.109,43.5024 238.609,40.8357 240.5,38.5 Z"/></g>
<g><path style="opacity:1" fill="#464646" d="M 399.5,38.5 C 401.932,38.6357 404.432,38.9691 407,39.5C 407.821,42.5541 407.655,45.5541 406.5,48.5C 405.52,45.9135 405.187,43.2469 405.5,40.5C 404.178,40.33 403.011,40.6634 402,41.5C 401.814,43.9005 401.314,46.2338 400.5,48.5C 399.513,45.2317 399.18,41.8984 399.5,38.5 Z"/></g>
<g><path style="opacity:1" fill="#2e2e2e" d="M 431.5,38.5 C 436.947,38.4555 437.447,39.4555 433,41.5C 432.667,43.8333 432.333,46.1667 432,48.5C 431.502,45.1832 431.335,41.8499 431.5,38.5 Z"/></g>
<g><path style="opacity:1" fill="#2d2d2d" d="M 230.5,38.5 C 234.349,38.0193 236.349,39.686 236.5,43.5C 227.395,44.1412 227.395,45.3078 236.5,47C 232.077,49.6112 229.077,48.4445 227.5,43.5C 228.092,41.5775 229.092,39.9108 230.5,38.5 Z"/></g>
<g><path style="opacity:1" fill="#eeeeee" d="M 240.5,40.5 C 241.833,40.5 243.167,40.5 244.5,40.5C 244.5,42.5 244.5,44.5 244.5,46.5C 239.74,46.7993 238.406,44.7993 240.5,40.5 Z"/></g>
<g><path style="opacity:1" fill="#2e2e2e" d="M 248.5,38.5 C 250.746,38.6907 253.079,39.024 255.5,39.5C 256.652,42.1062 256.818,44.7728 256,47.5C 254.333,48.8333 252.667,48.8333 251,47.5C 250.798,49.2556 250.298,50.9223 249.5,52.5C 248.507,47.8804 248.173,43.2137 248.5,38.5 Z"/></g>
<g><path style="opacity:1" fill="#f5f5f5" d="M 251.5,40.5 C 255.35,40.7007 256.35,42.5341 254.5,46C 250.537,46.1177 249.537,44.2843 251.5,40.5 Z"/></g>
<g><path style="opacity:1" fill="#3d3d3d" d="M 280.5,38.5 C 282.674,38.9202 284.674,38.9202 286.5,38.5C 287.997,43.1914 287.664,47.6914 285.5,52C 283.272,52.8201 281.272,52.4868 279.5,51C 281.941,50.964 283.941,50.1307 285.5,48.5C 283.828,48.6126 281.994,48.2792 280,47.5C 278.029,44.3839 278.195,41.3839 280.5,38.5 Z"/></g>
<g><path style="opacity:1" fill="#f4f4f4" d="M 280.5,40.5 C 285.159,40.0146 286.492,41.848 284.5,46C 283.216,46.6838 282.049,46.5171 281,45.5C 280.506,43.8659 280.34,42.1992 280.5,40.5 Z"/></g>
<g><path style="opacity:1" fill="#363636" d="M 297.5,38.5 C 304.252,38.8335 305.919,42.0002 302.5,48C 295.574,47.9938 293.908,44.8271 297.5,38.5 Z"/></g>
<g><path style="opacity:1" fill="#f4f4f4" d="M 298.5,40.5 C 302.068,40.7593 303.401,42.7593 302.5,46.5C 297.74,46.7993 296.406,44.7993 298.5,40.5 Z"/></g>
<g><path style="opacity:1" fill="#eaeaea" d="M 339.5,40.5 C 340.833,40.5 342.167,40.5 343.5,40.5C 343.5,42.5 343.5,44.5 343.5,46.5C 338.74,46.7993 337.406,44.7993 339.5,40.5 Z"/></g>
<g><path style="opacity:1" fill="#dddddd" d="M 356.5,39.5 C 359.955,40.1284 361.122,42.1284 360,45.5C 359.184,46.8228 358.017,47.4894 356.5,47.5C 355.167,44.8333 355.167,42.1667 356.5,39.5 Z"/></g>
<g><path style="opacity:1" fill="#3b3b3b" d="M 416.5,34.5 C 417.805,36.3972 418.471,38.7305 418.5,41.5C 418.167,43.8333 417.833,46.1667 417.5,48.5C 415.657,48.2448 413.657,48.0781 411.5,48C 408.833,45 408.833,42 411.5,39C 413.112,38.2797 414.612,38.4464 416,39.5C 416.494,37.8659 416.66,36.1992 416.5,34.5 Z"/></g>
<g><path style="opacity:1" fill="#f7f7f7" d="M 412.5,40.5 C 416.35,40.7007 417.35,42.5341 415.5,46C 411.537,46.1177 410.537,44.2843 412.5,40.5 Z"/></g>
<g><path style="opacity:1" fill="#ebebeb" d="M 230.5,40.5 C 231.978,40.238 233.311,40.5713 234.5,41.5C 232.926,42.6309 231.259,42.7975 229.5,42C 230.056,41.6174 230.389,41.1174 230.5,40.5 Z"/></g>
<g><path style="opacity:1" fill="#222222" d="M 329.5,38.5 C 333.349,38.0193 335.349,39.686 335.5,43.5C 326.395,44.1412 326.395,45.3078 335.5,47C 331.078,49.689 328.411,48.5223 327.5,43.5C 327.437,41.4861 328.103,39.8194 329.5,38.5 Z"/></g>
<g><path style="opacity:1" fill="#eaeaea" d="M 329.5,40.5 C 330.978,40.238 332.311,40.5713 333.5,41.5C 331.926,42.6309 330.259,42.7975 328.5,42C 329.056,41.6174 329.389,41.1174 329.5,40.5 Z"/></g>
<g><path style="opacity:1" fill="#161616" d="M 356.5,39.5 C 359.695,38.323 361.362,39.6563 361.5,43.5C 361.362,47.3437 359.695,48.677 356.5,47.5C 358.017,47.4894 359.184,46.8228 360,45.5C 361.122,42.1284 359.955,40.1284 356.5,39.5 Z"/></g>
<g><path style="opacity:1" fill="#1d1d1d" d="M 391.5,38.5 C 395.349,38.0193 397.349,39.686 397.5,43.5C 388.395,44.1412 388.395,45.3078 397.5,47C 393.078,49.689 390.411,48.5223 389.5,43.5C 389.437,41.4861 390.103,39.8194 391.5,38.5 Z"/></g>
<g><path style="opacity:1" fill="#e7e7e7" d="M 391.5,40.5 C 392.978,40.238 394.311,40.5713 395.5,41.5C 393.926,42.6309 392.259,42.7975 390.5,42C 391.056,41.6174 391.389,41.1174 391.5,40.5 Z"/></g>
<g><path style="opacity:1" fill="#252525" d="M 317.5,38.5 C 319.314,38.7721 321.314,38.9387 323.5,39C 326.167,42 326.167,45 323.5,48C 321.888,48.7203 320.388,48.5536 319,47.5C 318.667,49.1667 318.333,50.8333 318,52.5C 317.501,47.8452 317.334,43.1785 317.5,38.5 Z"/></g>
<g><path style="opacity:1" fill="#ececec" d="M 319.5,40.5 C 320.833,40.5 322.167,40.5 323.5,40.5C 323.5,42.5 323.5,44.5 323.5,46.5C 318.74,46.7993 317.406,44.7993 319.5,40.5 Z"/></g>
<g><path style="opacity:1" fill="#292929" d="M 363.5,38.5 C 365.364,39.9784 366.697,41.9784 367.5,44.5C 368.761,42.5466 369.927,40.5466 371,38.5C 371.167,39 371.333,39.5 371.5,40C 370.153,44.5767 368.153,48.7434 365.5,52.5C 365.167,52.3333 364.833,52.1667 364.5,52C 365.894,51.044 366.561,49.7106 366.5,48C 365.397,44.8595 364.397,41.6928 363.5,38.5 Z"/></g>
<g><path style="opacity:1" fill="#2f2f2f" d="M 380.5,38.5 C 382.541,38.8541 384.374,38.8541 386,38.5C 386.667,42.5 386.667,46.5 386,50.5C 384.116,52.5763 381.949,52.9097 379.5,51.5C 381.167,50.8333 382.833,50.1667 384.5,49.5C 378.441,47.5302 377.108,43.8636 380.5,38.5 Z"/></g>
<g><path style="opacity:1" fill="#f7f7f7" d="M 380.5,40.5 C 381.833,40.5 383.167,40.5 384.5,40.5C 384.5,42.5 384.5,44.5 384.5,46.5C 383.167,46.5 381.833,46.5 380.5,46.5C 380.5,44.5 380.5,42.5 380.5,40.5 Z"/></g>
<g><path style="opacity:1" fill="#2c2c2c" d="M 265.5,38.5 C 269.349,38.0193 271.349,39.686 271.5,43.5C 269.5,43.5 267.5,43.5 265.5,43.5C 265.5,44.5 265.5,45.5 265.5,46.5C 267.527,46.3379 269.527,46.5045 271.5,47C 265.138,49.6477 262.638,47.481 264,40.5C 264.717,39.9558 265.217,39.2891 265.5,38.5 Z"/></g>
<g><path style="opacity:1" fill="#e7e7e7" d="M 265.5,40.5 C 267.429,40.2308 269.095,40.7308 270.5,42C 269.667,42.1667 268.833,42.3333 268,42.5C 266.624,42.3158 265.791,41.6491 265.5,40.5 Z"/></g>
<g><path style="opacity:1" fill="#2c2c2c" d="M 422.5,38.5 C 426.349,38.0193 428.349,39.686 428.5,43.5C 426.5,43.5 424.5,43.5 422.5,43.5C 422.5,44.5 422.5,45.5 422.5,46.5C 424.527,46.3379 426.527,46.5045 428.5,47C 422.138,49.6477 419.638,47.481 421,40.5C 421.717,39.9558 422.217,39.2891 422.5,38.5 Z"/></g>
<g><path style="opacity:1" fill="#e7e7e7" d="M 422.5,40.5 C 424.429,40.2308 426.095,40.7308 427.5,42C 426.667,42.1667 425.833,42.3333 425,42.5C 423.624,42.3158 422.791,41.6491 422.5,40.5 Z"/></g>
<g><path style="opacity:1" fill="#333333" d="M 306.5,38.5 C 308.369,40.6353 309.036,43.3019 308.5,46.5C 309.833,46.5 311.167,46.5 312.5,46.5C 312.187,43.7531 312.52,41.0865 313.5,38.5C 314.833,41.8333 314.833,45.1667 313.5,48.5C 311.576,48.433 309.576,48.0997 307.5,47.5C 306.593,44.5788 306.26,41.5788 306.5,38.5 Z"/></g>
<g><path style="opacity:1" fill="#1f77b4" d="M 494.5,242.5 C 439.5,242.5 384.5,242.5 329.5,242.5C 325.065,297.296 321.399,352.296 318.5,407.5C 252.534,401.275 205.367,368.275 177,308.5C 152.12,244.787 161.12,186.453 204,133.5C 251.871,82.7725 309.704,66.2725 377.5,84C 443.973,107.815 482.807,154.649 494,224.5C 494.499,230.491 494.666,236.491 494.5,242.5 Z"/></g>
<g><path style="opacity:1" fill="#1f1f1f" d="M 199.5,106.5 C 199.415,105.005 200.081,104.005 201.5,103.5C 202.036,105.969 203.036,108.136 204.5,110C 203.151,110.772 202.318,111.939 202,113.5C 201.517,112.552 201.351,111.552 201.5,110.5C 196.003,110.781 195.336,109.447 199.5,106.5 Z"/></g>
<g><path style="opacity:1" fill="#4b4b4b" d="M 121.5,103.5 C 122.5,103.5 123.5,103.5 124.5,103.5C 125.833,110.167 127.167,110.167 128.5,103.5C 129.5,103.5 130.5,103.5 131.5,103.5C 131.82,106.898 131.487,110.232 130.5,113.5C 129.692,111.577 129.192,109.577 129,107.5C 127.445,112.768 125.779,112.768 124,107.5C 123.808,109.577 123.308,111.577 122.5,113.5C 121.513,110.232 121.18,106.898 121.5,103.5 Z"/></g>
<g><path style="opacity:1" fill="#232323" d="M 171.5,103.5 C 172.5,103.5 173.5,103.5 174.5,103.5C 174.5,106.5 174.5,109.5 174.5,112.5C 177.263,113.455 176.263,113.622 171.5,113C 172.658,111.991 173.325,110.658 173.5,109C 173.079,107.011 172.412,105.177 171.5,103.5 Z"/></g>
<g><path style="opacity:1" fill="#353535" d="M 147.5,105.5 C 150.95,104.756 152.616,106.09 152.5,109.5C 150.712,109.215 149.045,109.548 147.5,110.5C 147.709,111.086 148.043,111.586 148.5,112C 150.085,112.085 151.418,112.251 152.5,112.5C 145.789,113.788 144.123,111.455 147.5,105.5 Z"/></g>
<g><path style="opacity:1" fill="#e3e3e3" d="M 199.5,106.5 C 200.117,106.389 200.617,106.056 201,105.5C 201.49,106.793 201.657,108.127 201.5,109.5C 200.448,109.649 199.448,109.483 198.5,109C 199.252,108.329 199.586,107.496 199.5,106.5 Z"/></g>
<g><path style="opacity:1" fill="#1c1c1c" d="M 137.5,112.5 C 134.505,114.017 133.339,113.017 134,109.5C 139.666,108.739 139.832,107.572 134.5,106C 136.112,105.28 137.612,105.446 139,106.5C 139.667,108.833 139.667,111.167 139,113.5C 138.617,112.944 138.117,112.611 137.5,112.5 Z"/></g>
<g><path style="opacity:1" fill="#efefef" d="M 148.5,106.5 C 149.756,106.461 150.756,106.961 151.5,108C 150.167,108.667 148.833,108.667 147.5,108C 148.056,107.617 148.389,107.117 148.5,106.5 Z"/></g>
<g><path style="opacity:1" fill="#323232" d="M 184.5,104.5 C 187.145,107.217 187.145,110.05 184.5,113C 183.167,113.667 181.833,113.667 180.5,113C 185.987,111.13 185.82,109.63 180,108.5C 179.006,103.985 180.506,102.651 184.5,104.5 Z"/></g>
<g><path style="opacity:1" fill="#e1e1e1" d="M 184.5,104.5 C 184.5,105.833 184.5,107.167 184.5,108.5C 182.654,108.778 181.32,108.111 180.5,106.5C 181.32,104.889 182.654,104.222 184.5,104.5 Z"/></g>
<g><path style="opacity:1" fill="#2b2b2b" d="M 158.5,112.5 C 157.489,110.801 156.155,109.301 154.5,108C 154.667,107.5 154.833,107 155,106.5C 155.991,107.939 157.324,108.939 159,109.5C 159.74,110.749 159.573,111.749 158.5,112.5 Z"/></g>
<g><path style="opacity:1" fill="#dcdcdc" d="M 137.5,112.5 C 133.925,111.793 133.758,110.793 137,109.5C 138.683,110.176 138.85,111.176 137.5,112.5 Z"/></g>
<g><path style="opacity:1" fill="#2b2b2b" d="M 188.5,103.5 C 195.737,104.272 196.403,107.106 190.5,112C 191.833,112.333 193.167,112.667 194.5,113C 192.421,113.808 190.421,113.641 188.5,112.5C 190.167,110.5 191.833,108.5 193.5,106.5C 192.38,104.404 190.88,104.07 189,105.5C 188.536,104.906 188.369,104.239 188.5,103.5 Z"/></g>
<g><path style="opacity:1" fill="#262626" d="M 158.5,112.5 C 157.292,113.782 155.958,113.782 154.5,112.5C 155.557,112.094 156.891,112.094 158.5,112.5 Z"/></g>
<g><path style="opacity:1" fill="#070f16" d="M 248.5,167.5 C 248.415,166.005 249.081,165.005 250.5,164.5C 251.036,166.969 252.036,169.136 253.5,171C 252.151,171.772 251.318,172.939 251,174.5C 250.517,173.552 250.351,172.552 250.5,171.5C 249.167,171.5 247.833,171.5 246.5,171.5C 246.229,169.62 246.896,168.287 248.5,167.5 Z"/></g>
<g><path style="opacity:1" fill="#1d70aa" d="M 248.5,167.5 C 249.117,167.389 249.617,167.056 250,166.5C 250.49,167.793 250.657,169.127 250.5,170.5C 249.448,170.649 248.448,170.483 247.5,170C 248.252,169.329 248.586,168.496 248.5,167.5 Z"/></g>
<g><path style="opacity:1" fill="#0a121a" d="M 237.5,165.5 C 239.265,164.539 241.265,164.205 243.5,164.5C 243.181,168.136 242.015,171.469 240,174.5C 240.063,171.513 240.897,168.68 242.5,166C 240.866,165.506 239.199,165.34 237.5,165.5 Z"/></g>
<g><path style="opacity:1" fill="#0f273a" d="M 260.5,164.5 C 266.786,165.315 268.12,168.481 264.5,174C 262.567,174.783 261.067,174.283 260,172.5C 259.398,169.779 259.565,167.113 260.5,164.5 Z"/></g>
<g><path style="opacity:1" fill="#1d71ac" d="M 261.5,165.5 C 263.89,165.685 264.89,167.018 264.5,169.5C 264.658,171.319 263.991,172.652 262.5,173.5C 261.52,170.914 261.187,168.247 261.5,165.5 Z"/></g>
<g><path style="opacity:1" fill="#143c5a" d="M 279.5,169.5 C 277.946,170.914 276.612,172.581 275.5,174.5C 275.167,174.333 274.833,174.167 274.5,174C 275.293,172.915 275.96,171.748 276.5,170.5C 274.713,169.684 273.046,168.684 271.5,167.5C 272.212,165.954 273.378,164.954 275,164.5C 276.766,166.589 278.266,168.256 279.5,169.5 Z"/></g>
<g><path style="opacity:1" fill="#173b57" d="M 279.5,169.5 C 283.36,168.554 284.36,170.054 282.5,174C 281.551,174.617 280.718,174.451 280,173.5C 279.51,172.207 279.343,170.873 279.5,169.5 Z"/></g>
<g><path style="opacity:1" fill="#fe7f0f" d="M 329.5,242.5 C 377.844,268.34 426.511,293.673 475.5,318.5C 452.874,361.84 417.874,390.007 370.5,403C 353.233,407.313 335.899,408.813 318.5,407.5C 321.399,352.296 325.065,297.296 329.5,242.5 Z"/></g>
<g><path style="opacity:1" fill="#2ea02d" d="M 329.5,242.5 C 384.5,242.5 439.5,242.5 494.5,242.5C 494.419,269.491 488.086,294.825 475.5,318.5C 426.511,293.673 377.844,268.34 329.5,242.5 Z"/></g>
<g><path style="opacity:1" fill="#040d02" d="M 424.5,263.5 C 423.411,261.883 421.744,261.05 419.5,261C 421.833,260.333 424.167,260.333 426.5,261C 425.934,261.995 425.267,262.828 424.5,263.5 Z"/></g>
<g><path style="opacity:1" fill="#133e13" d="M 433.5,260.5 C 437.161,260.35 438.161,261.85 436.5,265C 432.707,265.487 431.707,263.987 433.5,260.5 Z"/></g>
<g><path style="opacity:1" fill="#0b1807" d="M 406.5,261.5 C 408.265,260.539 410.265,260.205 412.5,260.5C 412.181,264.136 411.015,267.469 409,270.5C 409.063,267.513 409.897,264.68 411.5,262C 409.866,261.506 408.199,261.34 406.5,261.5 Z"/></g>
<g><path style="opacity:1" fill="#175017" d="M 440.5,260.5 C 441.653,261.313 441.653,262.313 440.5,263.5C 442.744,264.003 444.078,265.337 444.5,267.5C 443.976,270.396 442.476,271.063 440,269.5C 438.032,266.302 438.199,263.302 440.5,260.5 Z"/></g>
<g><path style="opacity:1" fill="#0c1c08" d="M 424.5,263.5 C 424.357,266.097 423.523,268.431 422,270.5C 421.939,267.849 422.773,265.516 424.5,263.5 Z"/></g>
<g><path style="opacity:1" fill="#3f3f3f" d="M 528.5,286.5 C 527.842,287.398 527.176,288.398 526.5,289.5C 525.167,285.833 525.167,282.167 526.5,278.5C 527.08,280.637 528.08,282.47 529.5,284C 528.748,284.671 528.414,285.504 528.5,286.5 Z"/></g>
<g><path style="opacity:1" fill="#464646" d="M 512.5,288.5 C 510.511,289.887 508.678,289.553 507,287.5C 507.005,276.833 507.672,276.833 509,287.5C 510.011,288.337 511.178,288.67 512.5,288.5 Z"/></g>
<g><path style="opacity:1" fill="#1a1a1a" d="M 512.5,288.5 C 513.137,285.544 513.637,282.544 514,279.5C 514.667,282.167 514.667,284.833 514,287.5C 513.617,288.056 513.117,288.389 512.5,288.5 Z"/></g>
<g><path style="opacity:1" fill="#040404" d="M 579.5,280.5 C 580.209,279.596 581.209,279.263 582.5,279.5C 581.989,283.03 582.656,286.196 584.5,289C 582.833,289.667 581.167,289.667 579.5,289C 580.684,287.82 581.351,286.32 581.5,284.5C 581.415,282.667 580.748,281.334 579.5,280.5 Z"/></g>
<g><path style="opacity:1" fill="#535353" d="M 516.5,281.5 C 523.232,280.482 525.232,283.148 522.5,289.5C 521.041,280.39 519.374,280.39 517.5,289.5C 516.52,286.914 516.187,284.247 516.5,281.5 Z"/></g>
<g><path style="opacity:1" fill="#4c4c4c" d="M 533.5,281.5 C 539.853,280.867 541.853,283.534 539.5,289.5C 538.041,280.39 536.374,280.39 534.5,289.5C 533.52,286.914 533.187,284.247 533.5,281.5 Z"/></g>
<g><path style="opacity:1" fill="#363636" d="M 597.5,280.5 C 597.5,281.833 597.5,283.167 597.5,284.5C 594.833,283.167 594.833,281.833 597.5,280.5 Z"/></g>
<g><path style="opacity:1" fill="#e1e1e1" d="M 597.5,280.5 C 599.346,280.222 600.68,280.889 601.5,282.5C 600.68,284.111 599.346,284.778 597.5,284.5C 597.5,283.167 597.5,281.833 597.5,280.5 Z"/></g>
<g><path style="opacity:1" fill="#383838" d="M 562.5,281.5 C 567.041,281.331 567.374,281.998 563.5,283.5C 565.053,284.439 566.387,285.606 567.5,287C 566.591,289.319 564.925,289.986 562.5,289C 564.044,288.71 565.377,288.044 566.5,287C 562.801,286.513 561.468,284.679 562.5,281.5 Z"/></g>
<g><path style="opacity:1" fill="#5c5c5c" d="M 569.5,282.5 C 571.337,282.639 571.67,283.306 570.5,284.5C 569.702,284.043 569.369,283.376 569.5,282.5 Z"/></g>
<g><path style="opacity:1" fill="#242424" d="M 588.5,284.5 C 586.651,280.506 587.985,279.006 592.5,280C 593.61,282.737 593.777,285.571 593,288.5C 591.186,289.76 589.353,289.76 587.5,288.5C 588.582,288.251 589.915,288.085 591.5,288C 591.957,287.586 592.291,287.086 592.5,286.5C 591.051,285.828 589.718,285.161 588.5,284.5 Z"/></g>
<g><path style="opacity:1" fill="#ebebeb" d="M 588.5,284.5 C 588.066,281.834 589.066,280.667 591.5,281C 592.694,283.658 591.694,284.824 588.5,284.5 Z"/></g>
<g><path style="opacity:1" fill="#444444" d="M 597.5,280.5 C 598.884,279.199 600.384,279.199 602,280.5C 602.667,283.167 602.667,285.833 602,288.5C 600.274,289.576 598.441,289.743 596.5,289C 597.793,288.51 599.127,288.343 600.5,288.5C 600.5,287.5 600.5,286.5 600.5,285.5C 599.209,285.737 598.209,285.404 597.5,284.5C 599.346,284.778 600.68,284.111 601.5,282.5C 600.68,280.889 599.346,280.222 597.5,280.5 Z"/></g>
<g><path style="opacity:1" fill="#525252" d="M 528.5,286.5 C 530.196,286.685 531.529,287.519 532.5,289C 530.588,289.279 529.254,288.446 528.5,286.5 Z"/></g>
<g><path style="opacity:1" fill="#4a4a4a" d="M 550.5,281.5 C 552.067,282.681 552.901,284.347 553,286.5C 554.141,280.617 555.808,280.284 558,285.5C 558.219,284.062 558.719,282.729 559.5,281.5C 559.833,281.833 560.167,282.167 560.5,282.5C 559.811,284.444 559.311,286.444 559,288.5C 558.586,288.957 558.086,289.291 557.5,289.5C 556.757,288.092 555.923,286.759 555,285.5C 554.71,287.044 554.044,288.377 553,289.5C 551.659,286.978 550.826,284.311 550.5,281.5 Z"/></g>
<g><path style="opacity:1" fill="#222222" d="M 543.5,281.5 C 545.144,281.286 546.644,281.62 548,282.5C 548.758,284.769 548.591,286.936 547.5,289C 545.888,289.72 544.388,289.554 543,288.5C 542.297,286.071 542.463,283.738 543.5,281.5 Z"/></g>
<g><path style="opacity:1" fill="#eeeeee" d="M 544.5,282.5 C 546.484,282.484 547.484,283.484 547.5,285.5C 546.167,289.5 544.833,289.5 543.5,285.5C 543.685,284.416 544.018,283.416 544.5,282.5 Z"/></g>
<g><path style="opacity:1" fill="#5c5c5c" d="M 569.5,287.5 C 571.337,287.639 571.67,288.306 570.5,289.5C 569.702,289.043 569.369,288.376 569.5,287.5 Z"/></g>
<g><path style="opacity:1" fill="#0c0500" d="M 356.5,324.5 C 356.56,323.957 356.893,323.624 357.5,323.5C 358.484,326.428 358.817,329.428 358.5,332.5C 361.263,333.455 360.263,333.622 355.5,333C 356.684,331.82 357.351,330.32 357.5,328.5C 357.489,326.955 357.156,325.622 356.5,324.5 Z"/></g>
<g><path style="opacity:1" fill="#351b05" d="M 368.5,328.5 C 367.041,328.433 365.708,328.766 364.5,329.5C 362.377,324.989 363.711,323.155 368.5,324C 367.552,324.483 366.552,324.649 365.5,324.5C 365.5,325.5 365.5,326.5 365.5,327.5C 366.791,327.263 367.791,327.596 368.5,328.5 Z"/></g>
<g><path style="opacity:1" fill="#663309" d="M 390.5,323.5 C 394.161,323.35 395.161,324.85 393.5,328C 389.707,328.487 388.707,326.987 390.5,323.5 Z"/></g>
<g><path style="opacity:1" fill="#402005" d="M 377.5,328.5 C 380.919,321.434 382.919,321.934 383.5,330C 382.929,331.205 382.262,332.372 381.5,333.5C 380.614,332.675 380.281,331.675 380.5,330.5C 379.022,330.762 377.689,330.429 376.5,329.5C 376.624,328.893 376.957,328.56 377.5,328.5 Z"/></g>
<g><path style="opacity:1" fill="#f1780d" d="M 377.5,328.5 C 378.458,328.047 379.292,327.381 380,326.5C 380.483,327.448 380.649,328.448 380.5,329.5C 379.209,329.737 378.209,329.404 377.5,328.5 Z"/></g>
<g><path style="opacity:1" fill="#9e4e0b" d="M 397.5,327.5 C 399.14,328.79 399.64,330.457 399,332.5C 398.148,331.429 397.315,330.429 396.5,329.5C 396.5,328.833 396.167,328.5 395.5,328.5C 395.795,326.577 396.628,324.91 398,323.5C 398.195,324.819 398.028,326.153 397.5,327.5 Z"/></g>
<g><path style="opacity:1" fill="#df6e0c" d="M 368.5,328.5 C 368.5,329.833 368.5,331.167 368.5,332.5C 366.027,332.912 364.694,331.912 364.5,329.5C 365.708,328.766 367.041,328.433 368.5,328.5 Z"/></g>
<g><path style="opacity:1" fill="#5b2d09" d="M 395.5,328.5 C 395.539,329.756 395.039,330.756 394,331.5C 393.415,330.002 393.915,329.002 395.5,328.5 Z"/></g>
<g><path style="opacity:1" fill="#351b05" d="M 368.5,328.5 C 370.582,329.585 370.916,331.085 369.5,333C 367.833,333.667 366.167,333.667 364.5,333C 363.209,331.708 363.209,330.542 364.5,329.5C 364.694,331.912 366.027,332.912 368.5,332.5C 368.5,331.167 368.5,329.833 368.5,328.5 Z"/></g>
<g><path style="opacity:1" fill="#4d2707" d="M 397.5,327.5 C 401.071,327.408 402.238,329.074 401,332.5C 397.85,334.161 396.35,333.161 396.5,329.5C 397.315,330.429 398.148,331.429 399,332.5C 399.64,330.457 399.14,328.79 397.5,327.5 Z"/></g>
<g><path style="opacity:1" fill="#5c2d05" d="M 372.5,331.5 C 374.337,331.639 374.67,332.306 373.5,333.5C 372.702,333.043 372.369,332.376 372.5,331.5 Z"/></g>
<g><path style="opacity:1" fill="#404040" d="M 419.5,395.5 C 421.527,395.338 423.527,395.505 425.5,396C 424.207,396.49 422.873,396.657 421.5,396.5C 421.5,397.5 421.5,398.5 421.5,399.5C 426.833,399.833 426.833,400.167 421.5,400.5C 421.785,402.288 421.452,403.955 420.5,405.5C 419.513,402.232 419.18,398.898 419.5,395.5 Z"/></g>
<g><path style="opacity:1" fill="#232323" d="M 494.5,396.5 C 496.628,395.371 498.961,395.204 501.5,396C 500.382,399.355 498.882,402.522 497,405.5C 497.097,402.704 497.93,400.037 499.5,397.5C 497.955,396.548 496.288,396.215 494.5,396.5 Z"/></g>
<g><path style="opacity:1" fill="#343434" d="M 508.5,400.5 C 507.041,400.433 505.708,400.766 504.5,401.5C 502.377,396.989 503.711,395.155 508.5,396C 507.552,396.483 506.552,396.649 505.5,396.5C 505.5,397.5 505.5,398.5 505.5,399.5C 506.791,399.263 507.791,399.596 508.5,400.5 Z"/></g>
<g><path style="opacity:1" fill="#121212" d="M 442.5,398.5 C 441.79,400.746 441.29,403.08 441,405.5C 439.333,396.167 437.667,396.167 436,405.5C 435.503,402.854 435.336,400.187 435.5,397.5C 437.903,397.448 440.236,397.781 442.5,398.5 Z"/></g>
<g><path style="opacity:1" fill="#2b2b2b" d="M 428.5,398.5 C 431.676,396.727 433.343,397.727 433.5,401.5C 427.304,401.574 426.97,402.741 432.5,405C 429.143,406.141 427.143,404.975 426.5,401.5C 426.453,399.962 427.12,398.962 428.5,398.5 Z"/></g>
<g><path style="opacity:1" fill="#e0e0e0" d="M 428.5,398.5 C 430.103,398.312 431.437,398.812 432.5,400C 430.537,400.844 429.204,400.344 428.5,398.5 Z"/></g>
<g><path style="opacity:1" fill="#151515" d="M 442.5,398.5 C 443.542,397.209 444.708,397.209 446,398.5C 446.667,400.833 446.667,403.167 446,405.5C 445.667,403.5 445.333,401.5 445,399.5C 444.329,398.748 443.496,398.414 442.5,398.5 Z"/></g>
<g><path style="opacity:1" fill="#212121" d="M 462.5,397.5 C 465.95,396.756 467.616,398.09 467.5,401.5C 465.712,401.215 464.045,401.548 462.5,402.5C 462.709,403.086 463.043,403.586 463.5,404C 465.085,404.085 466.418,404.251 467.5,404.5C 465.926,405.631 464.259,405.798 462.5,405C 461.221,402.502 461.221,400.002 462.5,397.5 Z"/></g>
<g><path style="opacity:1" fill="#f3f3f3" d="M 463.5,398.5 C 464.756,398.461 465.756,398.961 466.5,400C 465.167,400.667 463.833,400.667 462.5,400C 463.056,399.617 463.389,399.117 463.5,398.5 Z"/></g>
<g><path style="opacity:1" fill="#1e1e1e" d="M 487.5,399.5 C 487.712,397.616 488.712,396.283 490.5,395.5C 492.148,398.936 492.314,402.269 491,405.5C 490.517,404.552 490.351,403.552 490.5,402.5C 488.712,402.785 487.045,402.452 485.5,401.5C 485.855,400.478 486.522,399.811 487.5,399.5 Z"/></g>
<g><path style="opacity:1" fill="#d7d7d7" d="M 487.5,399.5 C 490.044,396.693 491.044,397.36 490.5,401.5C 488.821,401.715 487.821,401.048 487.5,399.5 Z"/></g>
<g><path style="opacity:1" fill="#dfdfdf" d="M 508.5,400.5 C 508.5,401.833 508.5,403.167 508.5,404.5C 506.027,404.912 504.694,403.912 504.5,401.5C 505.708,400.766 507.041,400.433 508.5,400.5 Z"/></g>
<g><path style="opacity:1" fill="#3e3e3e" d="M 453.5,398.5 C 454.117,398.611 454.617,398.944 455,399.5C 455.495,401.473 455.662,403.473 455.5,405.5C 453.473,405.662 451.473,405.495 449.5,405C 448.978,404.439 448.645,403.772 448.5,403C 450.09,401.368 451.756,399.868 453.5,398.5 Z"/></g>
<g><path style="opacity:1" fill="#e5e5e5" d="M 450.5,401.5 C 453.957,401.667 454.29,402.667 451.5,404.5C 450.614,403.675 450.281,402.675 450.5,401.5 Z"/></g>
<g><path style="opacity:1" fill="#404040" d="M 470.5,397.5 C 475.041,397.331 475.374,397.998 471.5,399.5C 477.124,403.915 476.457,405.582 469.5,404.5C 470.687,404.446 472.02,404.113 473.5,403.5C 471.947,402.561 470.613,401.394 469.5,400C 469.743,399.098 470.077,398.265 470.5,397.5 Z"/></g>
<g><path style="opacity:1" fill="#343434" d="M 508.5,400.5 C 510.582,401.585 510.916,403.085 509.5,405C 507.833,405.667 506.167,405.667 504.5,405C 503.209,403.708 503.209,402.542 504.5,401.5C 504.694,403.912 506.027,404.912 508.5,404.5C 508.5,403.167 508.5,401.833 508.5,400.5 Z"/></g>
</svg>
