<?xml version="1.0" encoding="UTF-8"?>
<!DOCTYPE svg PUBLIC "-//W3C//DTD SVG 1.1//EN" "http://www.w3.org/Graphics/SVG/1.1/DTD/svg11.dtd">
<svg xmlns="http://www.w3.org/2000/svg" version="1.1" width="640px" height="480px" style="shape-rendering:geometricPrecision; text-rendering:geometricPrecision; image-rendering:optimizeQuality; fill-rule:evenodd; clip-rule:evenodd" xmlns:xlink="http://www.w3.org/1999/xlink">
<g><path style="opacity:1" fill="#fefefe" d="M -0.5,-0.5 C 212.833,-0.5 426.167,-0.5 639.5,-0.5C 639.5,159.5 639.5,319.5 639.5,479.5C 426.167,479.5 212.833,479.5 -0.5,479.5C -0.5,319.5 -0.5,159.5 -0.5,-0.5 Z"/></g>
<g><path style="opacity:1" fill="#535353" d="M 259.5,34.5 C 260.805,36.3972 261.471,38.7305 261.5,41.5C 261.167,43.8333 260.833,46.1667 260.5,48.5C 259.507,43.8804 259.173,39.2137 259.5,34.5 Z"/></g>
<g><path style="opacity:1" fill="#2b2b2b" d="M 343.5,34.5 C 344.805,36.3972 345.471,38.7305 345.5,41.5C 345.167,43.8333 344.833,46.1667 344.5,48.5C 343.402,47.3845 342.235,47.3845 341,48.5C 337.703,46.8419 336.703,44.1752 338,40.5C 339.396,38.4732 341.062,38.1398 343,39.5C 343.494,37.8659 343.66,36.1992 343.5,34.5 Z"/></g>
<g><path style="opacity:1" fill="#252525" d="M 356.5,39.5 C 355.167,42.1667 355.167,44.8333 356.5,47.5C 355.85,47.8039 355.183,48.1373 354.5,48.5C 353.167,43.8333 353.167,39.1667 354.5,34.5C 355.17,36.2914 355.837,37.9581 356.5,39.5 Z"/></g>
<g><path style="opacity:1" fill="#0a0a0a" d="M 219.5,35.5 C 225.662,34.1555 227.662,36.3222 225.5,42C 223.866,42.4935 222.199,42.6602 220.5,42.5C 220.662,44.5273 220.495,46.5273 220,48.5C 219.501,44.1794 219.334,39.8461 219.5,35.5 Z"/></g>
<g><path style="opacity:1" fill="#dadada" d="M 220.5,36.5 C 224.676,35.8307 226.009,37.3307 224.5,41C 223.207,41.49 221.873,41.6567 220.5,41.5C 220.5,39.8333 220.5,38.1667 220.5,36.5 Z"/></g>
<g><path style="opacity:1" fill="#373737" d="M 289.5,38.5 C 291.458,38.908 293.458,39.2413 295.5,39.5C 294.372,40.2621 293.205,40.9288 292,41.5C 291.814,43.9005 291.314,46.2338 290.5,48.5C 289.513,45.2317 289.18,41.8984 289.5,38.5 Z"/></g>
<g><path style="opacity:1" fill="#282828" d="M 240.5,38.5 C 245.989,38.504 247.822,41.1707 246,46.5C 243.667,49.1667 241.333,49.1667 239,46.5C 238.109,43.5024 238.609,40.8357 240.5,38.5 Z"/></g>
<g><path style="opacity:1" fill="#3a3a3a" d="M 400.5,38.5 C 402.571,38.4977 404.738,38.8311 407,39.5C 407.821,42.5541 407.655,45.5541 406.5,48.5C 405.52,45.9135 405.187,43.2469 405.5,40.5C 404.178,40.33 403.011,40.6634 402,41.5C 401.667,43.8333 401.333,46.1667 401,48.5C 400.502,45.1832 400.335,41.8499 400.5,38.5 Z"/></g>
<g><path style="opacity:1" fill="#2e2e2e" d="M 431.5,38.5 C 436.947,38.4555 437.447,39.4555 433,41.5C 432.667,43.8333 432.333,46.1667 432,48.5C 431.502,45.1832 431.335,41.8499 431.5,38.5 Z"/></g>
<g><path style="opacity:1" fill="#2d2d2d" d="M 230.5,38.5 C 234.349,38.0193 236.349,39.686 236.5,43.5C 227.395,44.1412 227.395,45.3078 236.5,47C 232.077,49.6112 229.077,48.4445 227.5,43.5C 228.092,41.5775 229.092,39.9108 230.5,38.5 Z"/></g>
<g><path style="opacity:1" fill="#eeeeee" d="M 240.5,40.5 C 241.833,40.5 243.167,40.5 244.5,40.5C 244.5,42.5 244.5,44.5 244.5,46.5C 239.74,46.7993 238.406,44.7993 240.5,40.5 Z"/></g>
<g><path style="opacity:1" fill="#2e2e2e" d="M 248.5,38.5 C 250.746,38.6907 253.079,39.024 255.5,39.5C 256.652,42.1062 256.818,44.7728 256,47.5C 254.333,48.8333 252.667,48.8333 251,47.5C 250.798,49.2556 250.298,50.9223 249.5,52.5C 248.507,47.8804 248.173,43.2137 248.5,38.5 Z"/></g>
<g><path style="opacity:1" fill="#f5f5f5" d="M 251.5,40.5 C 255.35,40.7007 256.35,42.5341 254.5,46C 250.537,46.1177 249.537,44.2843 251.5,40.5 Z"/></g>
<g><path style="opacity:1" fill="#3d3d3d" d="M 280.5,38.5 C 282.674,38.9202 284.674,38.9202 286.5,38.5C 287.997,43.1914 287.664,47.6914 285.5,52C 283.272,52.8201 281.272,52.4868 279.5,51C 281.941,50.964 283.941,50.1307 285.5,48.5C 283.828,48.6126 281.994,48.2792 280,47.5C 278.029,44.3839 278.195,41.3839 280.5,38.5 Z"/></g>
<g><path style="opacity:1" fill="#f4f4f4" d="M 280.5,40.5 C 285.159,40.0146 286.492,41.848 284.5,46C 283.216,46.6838 282.049,46.5171 281,45.5C 280.506,43.8659 280.34,42.1992 280.5,40.5 Z"/></g>
<g><path style="opacity:1" fill="#363636" d="M 297.5,38.5 C 304.252,38.8335 305.919,42.0002 302.5,48C 295.574,47.9938 293.908,44.8271 297.5,38.5 Z"/></g>
<g><path style="opacity:1" fill="#f4f4f4" d="M 298.5,40.5 C 302.068,40.7593 303.401,42.7593 302.5,46.5C 297.74,46.7993 296.406,44.7993 298.5,40.5 Z"/></g>
<g><path style="opacity:1" fill="#eaeaea" d="M 339.5,40.5 C 340.833,40.5 342.167,40.5 343.5,40.5C 343.5,42.5 343.5,44.5 343.5,46.5C 338.74,46.7993 337.406,44.7993 339.5,40.5 Z"/></g>
<g><path style="opacity:1" fill="#dddddd" d="M 356.5,39.5 C 359.955,40.1284 361.122,42.1284 360,45.5C 359.184,46.8228 358.017,47.4894 356.5,47.5C 355.167,44.8333 355.167,42.1667 356.5,39.5 Z"/></g>
<g><path style="opacity:1" fill="#3b3b3b" d="M 416.5,34.5 C 417.805,36.3972 418.471,38.7305 418.5,41.5C 418.167,43.8333 417.833,46.1667 417.5,48.5C 415.657,48.2448 413.657,48.0781 411.5,48C 408.833,45 408.833,42 411.5,39C 413.112,38.2797 414.612,38.4464 416,39.5C 416.494,37.8659 416.66,36.1992 416.5,34.5 Z"/></g>
<g><path style="opacity:1" fill="#f7f7f7" d="M 412.5,40.5 C 416.35,40.7007 417.35,42.5341 415.5,46C 411.537,46.1177 410.537,44.2843 412.5,40.5 Z"/></g>
<g><path style="opacity:1" fill="#ebebeb" d="M 230.5,40.5 C 231.978,40.238 233.311,40.5713 234.5,41.5C 232.926,42.6309 231.259,42.7975 229.5,42C 230.056,41.6174 230.389,41.1174 230.5,40.5 Z"/></g>
<g><path style="opacity:1" fill="#222222" d="M 329.5,38.5 C 333.349,38.0193 335.349,39.686 335.5,43.5C 326.395,44.1412 326.395,45.3078 335.5,47C 331.078,49.689 328.411,48.5223 327.5,43.5C 327.437,41.4861 328.103,39.8194 329.5,38.5 Z"/></g>
<g><path style="opacity:1" fill="#eaeaea" d="M 329.5,40.5 C 330.978,40.238 332.311,40.5713 333.5,41.5C 331.926,42.6309 330.259,42.7975 328.5,42C 329.056,41.6174 329.389,41.1174 329.5,40.5 Z"/></g>
<g><path style="opacity:1" fill="#161616" d="M 356.5,39.5 C 359.695,38.323 361.362,39.6563 361.5,43.5C 361.362,47.3437 359.695,48.677 356.5,47.5C 358.017,47.4894 359.184,46.8228 360,45.5C 361.122,42.1284 359.955,40.1284 356.5,39.5 Z"/></g>
<g><path style="opacity:1" fill="#1d1d1d" d="M 391.5,38.5 C 395.349,38.0193 397.349,39.686 397.5,43.5C 388.395,44.1412 388.395,45.3078 397.5,47C 393.078,49.689 390.411,48.5223 389.5,43.5C 389.437,41.4861 390.103,39.8194 391.5,38.5 Z"/></g>
<g><path style="opacity:1" fill="#e7e7e7" d="M 391.5,40.5 C 392.978,40.238 394.311,40.5713 395.5,41.5C 393.926,42.6309 392.259,42.7975 390.5,42C 391.056,41.6174 391.389,41.1174 391.5,40.5 Z"/></g>
<g><path style="opacity:1" fill="#252525" d="M 317.5,38.5 C 319.314,38.7721 321.314,38.9387 323.5,39C 326.167,42 326.167,45 323.5,48C 321.888,48.7203 320.388,48.5536 319,47.5C 318.667,49.1667 318.333,50.8333 318,52.5C 317.501,47.8452 317.334,43.1785 317.5,38.5 Z"/></g>
<g><path style="opacity:1" fill="#ececec" d="M 319.5,40.5 C 320.833,40.5 322.167,40.5 323.5,40.5C 323.5,42.5 323.5,44.5 323.5,46.5C 318.74,46.7993 317.406,44.7993 319.5,40.5 Z"/></g>
<g><path style="opacity:1" fill="#292929" d="M 363.5,38.5 C 365.364,39.9784 366.697,41.9784 367.5,44.5C 368.761,42.5466 369.927,40.5466 371,38.5C 371.167,39 371.333,39.5 371.5,40C 370.153,44.5767 368.153,48.7434 365.5,52.5C 365.167,52.3333 364.833,52.1667 364.5,52C 365.894,51.044 366.561,49.7106 366.5,48C 365.397,44.8595 364.397,41.6928 363.5,38.5 Z"/></g>
<g><path style="opacity:1" fill="#2f2f2f" d="M 380.5,38.5 C 382.541,38.8541 384.374,38.8541 386,38.5C 386.667,42.5 386.667,46.5 386,50.5C 384.116,52.5763 381.949,52.9097 379.5,51.5C 381.167,50.8333 382.833,50.1667 384.5,49.5C 378.441,47.5302 377.108,43.8636 380.5,38.5 Z"/></g>
<g><path style="opacity:1" fill="#f7f7f7" d="M 380.5,40.5 C 381.833,40.5 383.167,40.5 384.5,40.5C 384.5,42.5 384.5,44.5 384.5,46.5C 383.167,46.5 381.833,46.5 380.5,46.5C 380.5,44.5 380.5,42.5 380.5,40.5 Z"/></g>
<g><path style="opacity:1" fill="#2c2c2c" d="M 265.5,38.5 C 269.349,38.0193 271.349,39.686 271.5,43.5C 269.5,43.5 267.5,43.5 265.5,43.5C 265.5,44.5 265.5,45.5 265.5,46.5C 267.527,46.3379 269.527,46.5045 271.5,47C 265.138,49.6477 262.638,47.481 264,40.5C 264.717,39.9558 265.217,39.2891 265.5,38.5 Z"/></g>
<g><path style="opacity:1" fill="#e7e7e7" d="M 265.5,40.5 C 267.429,40.2308 269.095,40.7308 270.5,42C 269.667,42.1667 268.833,42.3333 268,42.5C 266.624,42.3158 265.791,41.6491 265.5,40.5 Z"/></g>
<g><path style="opacity:1" fill="#2c2c2c" d="M 422.5,38.5 C 426.349,38.0193 428.349,39.686 428.5,43.5C 426.5,43.5 424.5,43.5 422.5,43.5C 422.5,44.5 422.5,45.5 422.5,46.5C 424.527,46.3379 426.527,46.5045 428.5,47C 422.138,49.6477 419.638,47.481 421,40.5C 421.717,39.9558 422.217,39.2891 422.5,38.5 Z"/></g>
<g><path style="opacity:1" fill="#e7e7e7" d="M 422.5,40.5 C 424.429,40.2308 426.095,40.7308 427.5,42C 426.667,42.1667 425.833,42.3333 425,42.5C 423.624,42.3158 422.791,41.6491 422.5,40.5 Z"/></g>
<g><path style="opacity:1" fill="#333333" d="M 306.5,38.5 C 308.369,40.6353 309.036,43.3019 308.5,46.5C 309.833,46.5 311.167,46.5 312.5,46.5C 312.187,43.7531 312.52,41.0865 313.5,38.5C 314.833,41.8333 314.833,45.1667 313.5,48.5C 311.576,48.433 309.576,48.0997 307.5,47.5C 306.593,44.5788 306.26,41.5788 306.5,38.5 Z"/></g>
<g><path style="opacity:1" fill="#232323" d="M 390.5,55.5 C 392.628,54.3709 394.961,54.2042 397.5,55C 396.382,58.3553 394.882,61.522 393,64.5C 393.097,61.704 393.93,59.0374 395.5,56.5C 393.955,55.5481 392.288,55.2148 390.5,55.5 Z"/></g>
<g><path style="opacity:1" fill="#2a2a2a" d="M 412.5,55.5 C 410.891,55.9059 409.557,55.9059 408.5,55.5C 409.958,54.218 411.292,54.218 412.5,55.5 Z"/></g>
<g><path style="opacity:1" fill="#2e2e2e" d="M 404.5,58.5 C 404.244,56.2239 402.91,55.0572 400.5,55C 404.501,53.8397 405.835,55.0064 404.5,58.5 Z"/></g>
<g><path style="opacity:1" fill="#4b4b4b" d="M 341.5,54.5 C 342.5,54.5 343.5,54.5 344.5,54.5C 345.833,61.1667 347.167,61.1667 348.5,54.5C 349.5,54.5 350.5,54.5 351.5,54.5C 351.82,57.8984 351.487,61.2317 350.5,64.5C 349.692,62.5767 349.192,60.5767 349,58.5C 347.445,63.7682 345.779,63.7682 344,58.5C 343.808,60.5767 343.308,62.5767 342.5,64.5C 341.513,61.2317 341.18,57.8984 341.5,54.5 Z"/></g>
<g><path style="opacity:1" fill="#353535" d="M 367.5,56.5 C 370.95,55.7564 372.616,57.0897 372.5,60.5C 370.712,60.2148 369.045,60.5481 367.5,61.5C 367.709,62.086 368.043,62.586 368.5,63C 370.085,63.0848 371.418,63.2514 372.5,63.5C 365.789,64.7881 364.123,62.4548 367.5,56.5 Z"/></g>
<g><path style="opacity:1" fill="#1c1c1c" d="M 357.5,63.5 C 354.505,65.0173 353.339,64.0173 354,60.5C 359.666,59.7389 359.832,58.5723 354.5,57C 356.112,56.2797 357.612,56.4464 359,57.5C 359.667,59.8333 359.667,62.1667 359,64.5C 358.617,63.944 358.117,63.6107 357.5,63.5 Z"/></g>
<g><path style="opacity:1" fill="#efefef" d="M 368.5,57.5 C 369.756,57.4614 370.756,57.9614 371.5,59C 370.167,59.6667 368.833,59.6667 367.5,59C 368.056,58.6174 368.389,58.1174 368.5,57.5 Z"/></g>
<g><path style="opacity:1" fill="#626262" d="M 421.5,55.5 C 422.748,56.3339 423.415,57.6672 423.5,59.5C 423.345,64.7501 421.178,65.7501 417,62.5C 416.056,59.6529 416.556,57.1529 418.5,55C 419.749,54.2599 420.749,54.4265 421.5,55.5 Z"/></g>
<g><path style="opacity:1" fill="#f2f2f2" d="M 421.5,55.5 C 421.813,58.2469 421.48,60.9135 420.5,63.5C 419.009,62.6519 418.342,61.3186 418.5,59.5C 418.11,57.0182 419.11,55.6848 421.5,55.5 Z"/></g>
<g><path style="opacity:1" fill="#303030" d="M 404.5,58.5 C 407.358,61.7998 406.525,63.7998 402,64.5C 401.167,64.1667 400.333,63.8333 399.5,63.5C 400.582,63.2514 401.915,63.0848 403.5,63C 404.791,60.9098 404.124,59.5764 401.5,59C 402.448,58.5172 403.448,58.3505 404.5,58.5 Z"/></g>
<g><path style="opacity:1" fill="#3b3b3b" d="M 412.5,55.5 C 414.344,56.2039 414.844,57.5372 414,59.5C 412.833,60.6667 411.667,61.8333 410.5,63C 411.833,63.3333 413.167,63.6667 414.5,64C 407.898,65.0742 407.065,63.5742 412,59.5C 412.49,58.2068 412.657,56.8734 412.5,55.5 Z"/></g>
<g><path style="opacity:1" fill="#2b2b2b" d="M 378.5,63.5 C 377.489,61.801 376.155,60.301 374.5,59C 374.667,58.5 374.833,58 375,57.5C 375.991,58.9389 377.324,59.9389 379,60.5C 379.74,61.7494 379.573,62.7494 378.5,63.5 Z"/></g>
<g><path style="opacity:1" fill="#dcdcdc" d="M 357.5,63.5 C 353.925,62.7932 353.758,61.7932 357,60.5C 358.683,61.1765 358.85,62.1765 357.5,63.5 Z"/></g>
<g><path style="opacity:1" fill="#262626" d="M 378.5,63.5 C 377.292,64.782 375.958,64.782 374.5,63.5C 375.557,63.0941 376.891,63.0941 378.5,63.5 Z"/></g>
<g><path style="opacity:1" fill="#2077b3" d="M 492.5,241.5 C 437.167,241.5 381.833,241.5 326.5,241.5C 273.259,233.466 219.926,225.799 166.5,218.5C 166.615,205.84 169.115,193.507 174,181.5C 206.34,110.066 261.84,75.2324 340.5,77C 398.417,82.9626 442.251,110.796 472,160.5C 486.111,185.665 492.944,212.665 492.5,241.5 Z"/></g>
<g><path style="opacity:1" fill="#0a141d" d="M 320.5,137.5 C 322.265,136.539 324.265,136.205 326.5,136.5C 325.754,140.07 324.421,143.404 322.5,146.5C 322.167,146.333 321.833,146.167 321.5,146C 323.196,143.413 324.196,140.579 324.5,137.5C 323.167,137.5 321.833,137.5 320.5,137.5 Z"/></g>
<g><path style="opacity:1" fill="#143c5a" d="M 353.5,141.5 C 351.946,142.914 350.612,144.581 349.5,146.5C 349.167,146.333 348.833,146.167 348.5,146C 349.293,144.915 349.96,143.748 350.5,142.5C 348.713,141.684 347.046,140.684 345.5,139.5C 346.212,137.954 347.378,136.954 349,136.5C 350.766,138.589 352.266,140.256 353.5,141.5 Z"/></g>
<g><path style="opacity:1" fill="#0c1721" d="M 314.5,136.5 C 315.5,136.5 316.5,136.5 317.5,136.5C 317.244,138.792 317.577,140.959 318.5,143C 317.929,144.205 317.262,145.372 316.5,146.5C 315.614,145.675 315.281,144.675 315.5,143.5C 314.022,143.762 312.689,143.429 311.5,142.5C 312.557,142.094 313.891,142.094 315.5,142.5C 315.483,140.435 315.15,138.435 314.5,136.5 Z"/></g>
<g><path style="opacity:1" fill="#173b57" d="M 353.5,141.5 C 357.36,140.554 358.36,142.054 356.5,146C 355.551,146.617 354.718,146.451 354,145.5C 353.51,144.207 353.343,142.873 353.5,141.5 Z"/></g>
<g><path style="opacity:1" fill="#0a141d" d="M 333.5,137.5 C 335.265,136.539 337.265,136.205 339.5,136.5C 339.035,140.062 337.868,143.395 336,146.5C 335.802,143.422 336.635,140.588 338.5,138C 336.866,137.506 335.199,137.34 333.5,137.5 Z"/></g>
<g><path style="opacity:1" fill="#fd7f0f" d="M 166.5,218.5 C 219.926,225.799 273.259,233.466 326.5,241.5C 279.7,269.404 232.7,297.071 185.5,324.5C 166.46,291.011 160.127,255.677 166.5,218.5 Z"/></g>
<g><path style="opacity:1" fill="#2ca02c" d="M 326.5,241.5 C 381.833,241.5 437.167,241.5 492.5,241.5C 490.797,302.094 464.797,348.927 414.5,382C 355.408,415.131 296.741,414.464 238.5,380C 216.529,365.53 198.862,347.03 185.5,324.5C 232.7,297.071 279.7,269.404 326.5,241.5 Z"/></g>
<g><path style="opacity:1" fill="#0c0500" d="M 209.5,255.5 C 209.56,254.957 209.893,254.624 210.5,254.5C 211.484,257.428 211.817,260.428 211.5,263.5C 214.263,264.455 213.263,264.622 208.5,264C 209.684,262.82 210.351,261.32 210.5,259.5C 210.489,257.955 210.156,256.622 209.5,255.5 Z"/></g>
<g><path style="opacity:1" fill="#5c2e08" d="M 250.5,254.5 C 251.713,255.497 251.546,256.497 250,257.5C 249.53,256.423 249.697,255.423 250.5,254.5 Z"/></g>
<g><path style="opacity:1" fill="#ee760c" d="M 218.5,255.5 C 220.89,255.685 221.89,257.018 221.5,259.5C 221.72,262.968 220.387,263.968 217.5,262.5C 217.448,260.097 217.781,257.764 218.5,255.5 Z"/></g>
<g><path style="opacity:1" fill="#6b360b" d="M 243.5,254.5 C 247.161,254.35 248.161,255.85 246.5,259C 242.707,259.487 241.707,257.987 243.5,254.5 Z"/></g>
<g><path style="opacity:1" fill="#1d1003" d="M 218.5,255.5 C 217.781,257.764 217.448,260.097 217.5,262.5C 216.853,261.726 216.52,260.726 216.5,259.5C 216.34,257.645 217.007,256.312 218.5,255.5 Z"/></g>
<g><path style="opacity:1" fill="#2d1807" d="M 229.5,255.5 C 231.265,254.539 233.265,254.205 235.5,254.5C 235.091,257.991 234.091,261.325 232.5,264.5C 232.158,261.636 232.824,258.802 234.5,256C 232.866,255.506 231.199,255.34 229.5,255.5 Z"/></g>
<g><path style="opacity:1" fill="#482508" d="M 252.5,259.5 C 255.026,261.202 254.859,262.868 252,264.5C 251.5,264.333 251,264.167 250.5,264C 252.107,262.951 252.773,261.451 252.5,259.5 Z"/></g>
<g><path style="opacity:1" fill="#3c1f05" d="M 218.5,255.5 C 221.456,254.239 223.123,255.405 223.5,259C 223.479,261.904 222.145,263.738 219.5,264.5C 218.287,264.253 217.62,263.586 217.5,262.5C 220.387,263.968 221.72,262.968 221.5,259.5C 221.89,257.018 220.89,255.685 218.5,255.5 Z"/></g>
<g><path style="opacity:1" fill="#643209" d="M 225.5,262.5 C 227.337,262.639 227.67,263.306 226.5,264.5C 225.702,264.043 225.369,263.376 225.5,262.5 Z"/></g>
<g><path style="opacity:1" fill="#404040" d="M 49.5,270.5 C 51.5273,270.338 53.5273,270.505 55.5,271C 54.2068,271.49 52.8734,271.657 51.5,271.5C 51.5,272.5 51.5,273.5 51.5,274.5C 56.8333,274.833 56.8333,275.167 51.5,275.5C 51.7852,277.288 51.4519,278.955 50.5,280.5C 49.513,277.232 49.1796,273.898 49.5,270.5 Z"/></g>
<g><path style="opacity:1" fill="#424242" d="M 116.5,270.5 C 117.833,270.5 119.167,270.5 120.5,270.5C 119.989,274.03 120.656,277.196 122.5,280C 120.5,280.667 118.5,280.667 116.5,280C 117.658,278.991 118.325,277.658 118.5,276C 118.079,274.011 117.412,272.177 116.5,270.5 Z"/></g>
<g><path style="opacity:1" fill="#121212" d="M 72.5,273.5 C 71.7904,275.746 71.2904,278.08 71,280.5C 69.3333,271.167 67.6667,271.167 66,280.5C 65.5026,277.854 65.3359,275.187 65.5,272.5C 67.9029,272.448 70.2362,272.781 72.5,273.5 Z"/></g>
<g><path style="opacity:1" fill="#c5c5c5" d="M 143.5,278.5 C 142.167,276.5 142.167,274.5 143.5,272.5C 146.387,271.032 147.72,272.032 147.5,275.5C 147.72,278.968 146.387,279.968 143.5,278.5 Z"/></g>
<g><path style="opacity:1" fill="#353535" d="M 126.5,270.5 C 127.873,270.343 129.207,270.51 130.5,271C 125.168,272.572 125.334,273.739 131,274.5C 132.066,280.56 130.066,281.894 125,278.5C 124.282,275.593 124.782,272.926 126.5,270.5 Z"/></g>
<g><path style="opacity:1" fill="#3f3f3f" d="M 134.5,275.5 C 137.919,268.434 139.919,268.934 140.5,277C 139.929,278.205 139.262,279.372 138.5,280.5C 137.614,279.675 137.281,278.675 137.5,277.5C 136.022,277.762 134.689,277.429 133.5,276.5C 133.624,275.893 133.957,275.56 134.5,275.5 Z"/></g>
<g><path style="opacity:1" fill="#f1f1f1" d="M 134.5,275.5 C 135.458,275.047 136.292,274.381 137,273.5C 137.483,274.448 137.649,275.448 137.5,276.5C 136.209,276.737 135.209,276.404 134.5,275.5 Z"/></g>
<g><path style="opacity:1" fill="#434343" d="M 143.5,278.5 C 146.387,279.968 147.72,278.968 147.5,275.5C 147.72,272.032 146.387,271.032 143.5,272.5C 146.582,269.624 148.582,270.457 149.5,275C 149.479,277.904 148.145,279.738 145.5,280.5C 144.287,280.253 143.62,279.586 143.5,278.5 Z"/></g>
<g><path style="opacity:1" fill="#2b2b2b" d="M 58.5,273.5 C 61.676,271.727 63.3427,272.727 63.5,276.5C 57.3036,276.574 56.9703,277.741 62.5,280C 59.1432,281.141 57.1432,279.975 56.5,276.5C 56.4534,274.962 57.1201,273.962 58.5,273.5 Z"/></g>
<g><path style="opacity:1" fill="#e0e0e0" d="M 58.5,273.5 C 60.1033,273.312 61.4366,273.812 62.5,275C 60.5372,275.844 59.2039,275.344 58.5,273.5 Z"/></g>
<g><path style="opacity:1" fill="#151515" d="M 72.5,273.5 C 73.5417,272.209 74.7083,272.209 76,273.5C 76.6667,275.833 76.6667,278.167 76,280.5C 75.6667,278.5 75.3333,276.5 75,274.5C 74.3292,273.748 73.4959,273.414 72.5,273.5 Z"/></g>
<g><path style="opacity:1" fill="#212121" d="M 92.5,272.5 C 95.9496,271.756 97.6162,273.09 97.5,276.5C 95.712,276.215 94.0453,276.548 92.5,277.5C 92.7093,278.086 93.0426,278.586 93.5,279C 95.0846,279.085 96.4179,279.251 97.5,279.5C 95.9255,280.631 94.2588,280.798 92.5,280C 91.2215,277.502 91.2215,275.002 92.5,272.5 Z"/></g>
<g><path style="opacity:1" fill="#f3f3f3" d="M 93.5,273.5 C 94.7562,273.461 95.7562,273.961 96.5,275C 95.1667,275.667 93.8333,275.667 92.5,275C 93.056,274.617 93.3893,274.117 93.5,273.5 Z"/></g>
<g><path style="opacity:1" fill="#e5e5e5" d="M 127.5,274.5 C 130.956,275.536 131.29,277.203 128.5,279.5C 126.296,278.218 125.962,276.551 127.5,274.5 Z"/></g>
<g><path style="opacity:1" fill="#3e3e3e" d="M 83.5,273.5 C 84.1174,273.611 84.6174,273.944 85,274.5C 85.4955,276.473 85.6621,278.473 85.5,280.5C 83.4727,280.662 81.4727,280.495 79.5,280C 78.9781,279.439 78.6448,278.772 78.5,278C 80.0898,276.368 81.7564,274.868 83.5,273.5 Z"/></g>
<g><path style="opacity:1" fill="#e5e5e5" d="M 80.5,276.5 C 83.9571,276.667 84.2904,277.667 81.5,279.5C 80.6143,278.675 80.281,277.675 80.5,276.5 Z"/></g>
<g><path style="opacity:1" fill="#404040" d="M 100.5,272.5 C 105.041,272.331 105.374,272.998 101.5,274.5C 107.124,278.915 106.457,280.582 99.5,279.5C 100.687,279.446 102.02,279.113 103.5,278.5C 101.947,277.561 100.613,276.394 99.5,275C 99.7432,274.098 100.077,273.265 100.5,272.5 Z"/></g>
<g><path style="opacity:1" fill="#000200" d="M 340.5,331.5 C 341.209,330.596 342.209,330.263 343.5,330.5C 342.989,334.03 343.656,337.196 345.5,340C 343.833,340.667 342.167,340.667 340.5,340C 341.684,338.82 342.351,337.32 342.5,335.5C 342.415,333.667 341.748,332.334 340.5,331.5 Z"/></g>
<g><path style="opacity:1" fill="#0e230b" d="M 357.5,334.5 C 354.916,335.048 353.916,336.715 354.5,339.5C 351.855,336.783 351.855,333.95 354.5,331C 355.833,330.333 357.167,330.333 358.5,331C 353.955,331.939 353.622,333.106 357.5,334.5 Z"/></g>
<g><path style="opacity:1" fill="#133e13" d="M 366.5,330.5 C 370.161,330.35 371.161,331.85 369.5,335C 365.707,335.487 364.707,333.987 366.5,330.5 Z"/></g>
<g><path style="opacity:1" fill="#175017" d="M 373.5,330.5 C 374.653,331.313 374.653,332.313 373.5,333.5C 375.744,334.003 377.078,335.337 377.5,337.5C 376.976,340.396 375.476,341.063 373,339.5C 371.032,336.302 371.199,333.302 373.5,330.5 Z"/></g>
<g><path style="opacity:1" fill="#279127" d="M 357.5,334.5 C 357.5,336.167 357.5,337.833 357.5,339.5C 356.5,339.5 355.5,339.5 354.5,339.5C 353.916,336.715 354.916,335.048 357.5,334.5 Z"/></g>
<g><path style="opacity:1" fill="#0d1d09" d="M 334.5,330.5 C 336.141,332.203 337.141,334.37 337.5,337C 336.929,338.205 336.262,339.372 335.5,340.5C 334.614,339.675 334.281,338.675 334.5,337.5C 333.022,337.762 331.689,337.429 330.5,336.5C 331.557,336.094 332.891,336.094 334.5,336.5C 334.065,334.297 334.065,332.297 334.5,330.5 Z"/></g>
<g><path style="opacity:1" fill="#113211" d="M 357.5,334.5 C 359.377,335.659 359.877,337.326 359,339.5C 357.384,340.801 355.884,340.801 354.5,339.5C 355.5,339.5 356.5,339.5 357.5,339.5C 357.5,337.833 357.5,336.167 357.5,334.5 Z"/></g>
<g><path style="opacity:1" fill="#3f3f3f" d="M 398.5,417.5 C 397.842,418.398 397.176,419.398 396.5,420.5C 395.167,416.833 395.167,413.167 396.5,409.5C 397.08,411.637 398.08,413.47 399.5,415C 398.748,415.671 398.414,416.504 398.5,417.5 Z"/></g>
<g><path style="opacity:1" fill="#464646" d="M 382.5,419.5 C 380.511,420.887 378.678,420.553 377,418.5C 377.005,407.833 377.672,407.833 379,418.5C 380.011,419.337 381.178,419.67 382.5,419.5 Z"/></g>
<g><path style="opacity:1" fill="#1a1a1a" d="M 382.5,419.5 C 383.137,416.544 383.637,413.544 384,410.5C 384.667,413.167 384.667,415.833 384,418.5C 383.617,419.056 383.117,419.389 382.5,419.5 Z"/></g>
<g><path style="opacity:1" fill="#242424" d="M 466.5,411.5 C 468.364,410.207 470.364,410.207 472.5,411.5C 471.436,414.627 470.103,417.627 468.5,420.5C 468.167,420.167 467.833,419.833 467.5,419.5C 468.695,417.249 469.695,414.915 470.5,412.5C 469.311,411.571 467.978,411.238 466.5,411.5 Z"/></g>
<g><path style="opacity:1" fill="#404040" d="M 474.5,410.5 C 480.183,409.665 481.683,411.665 479,416.5C 479,415.167 479,413.833 479,412.5C 477.887,411.289 476.72,411.289 475.5,412.5C 474.702,412.043 474.369,411.376 474.5,410.5 Z"/></g>
<g><path style="opacity:1" fill="#535353" d="M 386.5,412.5 C 393.232,411.482 395.232,414.148 392.5,420.5C 391.041,411.39 389.374,411.39 387.5,420.5C 386.52,417.914 386.187,415.247 386.5,412.5 Z"/></g>
<g><path style="opacity:1" fill="#4c4c4c" d="M 403.5,412.5 C 409.853,411.867 411.853,414.534 409.5,420.5C 408.041,411.39 406.374,411.39 404.5,420.5C 403.52,417.914 403.187,415.247 403.5,412.5 Z"/></g>
<g><path style="opacity:1" fill="#383838" d="M 432.5,412.5 C 437.041,412.331 437.374,412.998 433.5,414.5C 435.053,415.439 436.387,416.606 437.5,418C 436.591,420.319 434.925,420.986 432.5,420C 434.044,419.71 435.377,419.044 436.5,418C 432.801,417.513 431.468,415.679 432.5,412.5 Z"/></g>
<g><path style="opacity:1" fill="#5c5c5c" d="M 439.5,413.5 C 441.337,413.639 441.67,414.306 440.5,415.5C 439.702,415.043 439.369,414.376 439.5,413.5 Z"/></g>
<g><path style="opacity:1" fill="#292929" d="M 457.5,411.5 C 459.223,410.193 461.057,410.193 463,411.5C 463.202,414.259 463.036,417.092 462.5,420C 460.833,420.667 459.167,420.667 457.5,420C 459.619,419.902 461.286,419.069 462.5,417.5C 461.91,416.201 460.91,415.368 459.5,415C 463.245,412.504 462.578,411.337 457.5,411.5 Z"/></g>
<g><path style="opacity:1" fill="#525252" d="M 398.5,417.5 C 400.196,417.685 401.529,418.519 402.5,420C 400.588,420.279 399.254,419.446 398.5,417.5 Z"/></g>
<g><path style="opacity:1" fill="#4a4a4a" d="M 420.5,412.5 C 422.067,413.681 422.901,415.347 423,417.5C 424.141,411.617 425.808,411.284 428,416.5C 428.219,415.062 428.719,413.729 429.5,412.5C 429.833,412.833 430.167,413.167 430.5,413.5C 429.811,415.444 429.311,417.444 429,419.5C 428.586,419.957 428.086,420.291 427.5,420.5C 426.757,419.092 425.923,417.759 425,416.5C 424.71,418.044 424.044,419.377 423,420.5C 421.659,417.978 420.826,415.311 420.5,412.5 Z"/></g>
<g><path style="opacity:1" fill="#060606" d="M 475.5,418.5 C 477.086,419.148 478.753,419.648 480.5,420C 478.5,420.667 476.5,420.667 474.5,420C 475.056,419.617 475.389,419.117 475.5,418.5 Z"/></g>
<g><path style="opacity:1" fill="#222222" d="M 413.5,412.5 C 415.144,412.286 416.644,412.62 418,413.5C 418.758,415.769 418.591,417.936 417.5,420C 415.888,420.72 414.388,420.554 413,419.5C 412.297,417.071 412.463,414.738 413.5,412.5 Z"/></g>
<g><path style="opacity:1" fill="#eeeeee" d="M 414.5,413.5 C 416.484,413.484 417.484,414.484 417.5,416.5C 416.167,420.5 414.833,420.5 413.5,416.5C 413.685,415.416 414.018,414.416 414.5,413.5 Z"/></g>
<g><path style="opacity:1" fill="#5c5c5c" d="M 439.5,418.5 C 441.337,418.639 441.67,419.306 440.5,420.5C 439.702,420.043 439.369,419.376 439.5,418.5 Z"/></g>
<g><path style="opacity:1" fill="#404040" d="M 453.5,414.5 C 456.322,417.375 455.656,419.375 451.5,420.5C 450.833,420.167 450.167,419.833 449.5,419.5C 447.938,416.386 448.271,413.553 450.5,411C 451.833,410.333 453.167,410.333 454.5,411C 449.955,411.939 449.622,413.106 453.5,414.5 Z"/></g>
<g><path style="opacity:1" fill="#e9e9e9" d="M 453.5,414.5 C 453.884,416.665 453.217,418.332 451.5,419.5C 450.548,417.955 450.215,416.288 450.5,414.5C 451.5,414.5 452.5,414.5 453.5,414.5 Z"/></g>
</svg>
