<?xml version="1.0" encoding="UTF-8"?>
<!DOCTYPE svg PUBLIC "-//W3C//DTD SVG 1.1//EN" "http://www.w3.org/Graphics/SVG/1.1/DTD/svg11.dtd">
<svg xmlns="http://www.w3.org/2000/svg" version="1.1" width="640px" height="480px" style="shape-rendering:geometricPrecision; text-rendering:geometricPrecision; image-rendering:optimizeQuality; fill-rule:evenodd; clip-rule:evenodd" xmlns:xlink="http://www.w3.org/1999/xlink">
<g><path style="opacity:1" fill="#fefefe" d="M -0.5,-0.5 C 212.833,-0.5 426.167,-0.5 639.5,-0.5C 639.5,159.5 639.5,319.5 639.5,479.5C 426.167,479.5 212.833,479.5 -0.5,479.5C -0.5,319.5 -0.5,159.5 -0.5,-0.5 Z"/></g>
<g><path style="opacity:1" fill="#535353" d="M 259.5,34.5 C 260.805,36.3972 261.471,38.7305 261.5,41.5C 261.167,43.8333 260.833,46.1667 260.5,48.5C 259.507,43.8804 259.173,39.2137 259.5,34.5 Z"/></g>
<g><path style="opacity:1" fill="#2b2b2b" d="M 343.5,34.5 C 344.805,36.3972 345.471,38.7305 345.5,41.5C 345.167,43.8333 344.833,46.1667 344.5,48.5C 343.402,47.3845 342.235,47.3845 341,48.5C 337.703,46.8419 336.703,44.1752 338,40.5C 339.396,38.4732 341.062,38.1398 343,39.5C 343.494,37.8659 343.66,36.1992 343.5,34.5 Z"/></g>
<g><path style="opacity:1" fill="#252525" d="M 356.5,39.5 C 355.167,42.1667 355.167,44.8333 356.5,47.5C 355.85,47.8039 355.183,48.1373 354.5,48.5C 353.167,43.8333 353.167,39.1667 354.5,34.5C 355.17,36.2914 355.837,37.9581 356.5,39.5 Z"/></g>
<g><path style="opacity:1" fill="#0a0a0a" d="M 219.5,35.5 C 225.662,34.1555 227.662,36.3222 225.5,42C 223.866,42.4935 222.199,42.6602 220.5,42.5C 220.662,44.5273 220.495,46.5273 220,48.5C 219.501,44.1794 219.334,39.8461 219.5,35.5 Z"/></g>
<g><path style="opacity:1" fill="#dadada" d="M 220.5,36.5 C 224.676,35.8307 226.009,37.3307 224.5,41C 223.207,41.49 221.873,41.6567 220.5,41.5C 220.5,39.8333 220.5,38.1667 220.5,36.5 Z"/></g>
<g><path style="opacity:1" fill="#373737" d="M 289.5,38.5 C 291.458,38.908 293.458,39.2413 295.5,39.5C 294.372,40.2621 293.205,40.9288 292,41.5C 291.814,43.9005 291.314,46.2338 290.5,48.5C 289.513,45.2317 289.18,41.8984 289.5,38.5 Z"/></g>
<g><path style="opacity:1" fill="#282828" d="M 240.5,38.5 C 245.989,38.504 247.822,41.1707 246,46.5C 243.667,49.1667 241.333,49.1667 239,46.5C 238.109,43.5024 238.609,40.8357 240.5,38.5 Z"/></g>
<g><path style="opacity:1" fill="#3b3b3b" d="M 400.5,38.5 C 402.571,38.4977 404.738,38.8311 407,39.5C 407.821,42.5541 407.655,45.5541 406.5,48.5C 405.52,45.9135 405.187,43.2469 405.5,40.5C 404.178,40.33 403.011,40.6634 402,41.5C 401.667,43.8333 401.333,46.1667 401,48.5C 400.502,45.1832 400.335,41.8499 400.5,38.5 Z"/></g>
<g><path style="opacity:1" fill="#2e2e2e" d="M 431.5,38.5 C 436.947,38.4555 437.447,39.4555 433,41.5C 432.667,43.8333 432.333,46.1667 432,48.5C 431.502,45.1832 431.335,41.8499 431.5,38.5 Z"/></g>
<g><path style="opacity:1" fill="#2d2d2d" d="M 230.5,38.5 C 234.349,38.0193 236.349,39.686 236.5,43.5C 227.395,44.1412 227.395,45.3078 236.5,47C 232.077,49.6112 229.077,48.4445 227.5,43.5C 228.092,41.5775 229.092,39.9108 230.5,38.5 Z"/></g>
<g><path style="opacity:1" fill="#eeeeee" d="M 240.5,40.5 C 241.833,40.5 243.167,40.5 244.5,40.5C 244.5,42.5 244.5,44.5 244.5,46.5C 239.74,46.7993 238.406,44.7993 240.5,40.5 Z"/></g>
<g><path style="opacity:1" fill="#2e2e2e" d="M 248.5,38.5 C 250.746,38.6907 253.079,39.024 255.5,39.5C 256.652,42.1062 256.818,44.7728 256,47.5C 254.333,48.8333 252.667,48.8333 251,47.5C 250.798,49.2556 250.298,50.9223 249.5,52.5C 248.507,47.8804 248.173,43.2137 248.5,38.5 Z"/></g>
<g><path style="opacity:1" fill="#f5f5f5" d="M 251.5,40.5 C 255.35,40.7007 256.35,42.5341 254.5,46C 250.537,46.1177 249.537,44.2843 251.5,40.5 Z"/></g>
<g><path style="opacity:1" fill="#3d3d3d" d="M 280.5,38.5 C 282.674,38.9202 284.674,38.9202 286.5,38.5C 287.997,43.1914 287.664,47.6914 285.5,52C 283.272,52.8201 281.272,52.4868 279.5,51C 281.941,50.964 283.941,50.1307 285.5,48.5C 283.828,48.6126 281.994,48.2792 280,47.5C 278.029,44.3839 278.195,41.3839 280.5,38.5 Z"/></g>
<g><path style="opacity:1" fill="#f4f4f4" d="M 280.5,40.5 C 285.159,40.0146 286.492,41.848 284.5,46C 283.216,46.6838 282.049,46.5171 281,45.5C 280.506,43.8659 280.34,42.1992 280.5,40.5 Z"/></g>
<g><path style="opacity:1" fill="#363636" d="M 297.5,38.5 C 304.252,38.8335 305.919,42.0002 302.5,48C 295.574,47.9938 293.908,44.8271 297.5,38.5 Z"/></g>
<g><path style="opacity:1" fill="#f4f4f4" d="M 298.5,40.5 C 302.068,40.7593 303.401,42.7593 302.5,46.5C 297.74,46.7993 296.406,44.7993 298.5,40.5 Z"/></g>
<g><path style="opacity:1" fill="#eaeaea" d="M 339.5,40.5 C 340.833,40.5 342.167,40.5 343.5,40.5C 343.5,42.5 343.5,44.5 343.5,46.5C 338.74,46.7993 337.406,44.7993 339.5,40.5 Z"/></g>
<g><path style="opacity:1" fill="#dddddd" d="M 356.5,39.5 C 359.955,40.1284 361.122,42.1284 360,45.5C 359.184,46.8228 358.017,47.4894 356.5,47.5C 355.167,44.8333 355.167,42.1667 356.5,39.5 Z"/></g>
<g><path style="opacity:1" fill="#3b3b3b" d="M 416.5,34.5 C 417.805,36.3972 418.471,38.7305 418.5,41.5C 418.167,43.8333 417.833,46.1667 417.5,48.5C 415.657,48.2448 413.657,48.0781 411.5,48C 408.833,45 408.833,42 411.5,39C 413.112,38.2797 414.612,38.4464 416,39.5C 416.494,37.8659 416.66,36.1992 416.5,34.5 Z"/></g>
<g><path style="opacity:1" fill="#f7f7f7" d="M 412.5,40.5 C 416.35,40.7007 417.35,42.5341 415.5,46C 411.537,46.1177 410.537,44.2843 412.5,40.5 Z"/></g>
<g><path style="opacity:1" fill="#ebebeb" d="M 230.5,40.5 C 231.978,40.238 233.311,40.5713 234.5,41.5C 232.926,42.6309 231.259,42.7975 229.5,42C 230.056,41.6174 230.389,41.1174 230.5,40.5 Z"/></g>
<g><path style="opacity:1" fill="#222222" d="M 329.5,38.5 C 333.349,38.0193 335.349,39.686 335.5,43.5C 326.395,44.1412 326.395,45.3078 335.5,47C 331.078,49.689 328.411,48.5223 327.5,43.5C 327.437,41.4861 328.103,39.8194 329.5,38.5 Z"/></g>
<g><path style="opacity:1" fill="#eaeaea" d="M 329.5,40.5 C 330.978,40.238 332.311,40.5713 333.5,41.5C 331.926,42.6309 330.259,42.7975 328.5,42C 329.056,41.6174 329.389,41.1174 329.5,40.5 Z"/></g>
<g><path style="opacity:1" fill="#161616" d="M 356.5,39.5 C 359.695,38.323 361.362,39.6563 361.5,43.5C 361.362,47.3437 359.695,48.677 356.5,47.5C 358.017,47.4894 359.184,46.8228 360,45.5C 361.122,42.1284 359.955,40.1284 356.5,39.5 Z"/></g>
<g><path style="opacity:1" fill="#1d1d1d" d="M 391.5,38.5 C 395.349,38.0193 397.349,39.686 397.5,43.5C 388.395,44.1412 388.395,45.3078 397.5,47C 393.078,49.689 390.411,48.5223 389.5,43.5C 389.437,41.4861 390.103,39.8194 391.5,38.5 Z"/></g>
<g><path style="opacity:1" fill="#e7e7e7" d="M 391.5,40.5 C 392.978,40.238 394.311,40.5713 395.5,41.5C 393.926,42.6309 392.259,42.7975 390.5,42C 391.056,41.6174 391.389,41.1174 391.5,40.5 Z"/></g>
<g><path style="opacity:1" fill="#252525" d="M 317.5,38.5 C 319.314,38.7721 321.314,38.9387 323.5,39C 326.167,42 326.167,45 323.5,48C 321.888,48.7203 320.388,48.5536 319,47.5C 318.667,49.1667 318.333,50.8333 318,52.5C 317.501,47.8452 317.334,43.1785 317.5,38.5 Z"/></g>
<g><path style="opacity:1" fill="#ececec" d="M 319.5,40.5 C 320.833,40.5 322.167,40.5 323.5,40.5C 323.5,42.5 323.5,44.5 323.5,46.5C 318.74,46.7993 317.406,44.7993 319.5,40.5 Z"/></g>
<g><path style="opacity:1" fill="#292929" d="M 363.5,38.5 C 365.364,39.9784 366.697,41.9784 367.5,44.5C 368.761,42.5466 369.927,40.5466 371,38.5C 371.167,39 371.333,39.5 371.5,40C 370.153,44.5767 368.153,48.7434 365.5,52.5C 365.167,52.3333 364.833,52.1667 364.5,52C 365.894,51.044 366.561,49.7106 366.5,48C 365.397,44.8595 364.397,41.6928 363.5,38.5 Z"/></g>
<g><path style="opacity:1" fill="#2f2f2f" d="M 380.5,38.5 C 382.541,38.8541 384.374,38.8541 386,38.5C 386.667,42.5 386.667,46.5 386,50.5C 384.116,52.5763 381.949,52.9097 379.5,51.5C 381.167,50.8333 382.833,50.1667 384.5,49.5C 378.441,47.5302 377.108,43.8636 380.5,38.5 Z"/></g>
<g><path style="opacity:1" fill="#f7f7f7" d="M 380.5,40.5 C 381.833,40.5 383.167,40.5 384.5,40.5C 384.5,42.5 384.5,44.5 384.5,46.5C 383.167,46.5 381.833,46.5 380.5,46.5C 380.5,44.5 380.5,42.5 380.5,40.5 Z"/></g>
<g><path style="opacity:1" fill="#2c2c2c" d="M 265.5,38.5 C 269.349,38.0193 271.349,39.686 271.5,43.5C 269.5,43.5 267.5,43.5 265.5,43.5C 265.5,44.5 265.5,45.5 265.5,46.5C 267.527,46.3379 269.527,46.5045 271.5,47C 265.138,49.6477 262.638,47.481 264,40.5C 264.717,39.9558 265.217,39.2891 265.5,38.5 Z"/></g>
<g><path style="opacity:1" fill="#e7e7e7" d="M 265.5,40.5 C 267.429,40.2308 269.095,40.7308 270.5,42C 269.667,42.1667 268.833,42.3333 268,42.5C 266.624,42.3158 265.791,41.6491 265.5,40.5 Z"/></g>
<g><path style="opacity:1" fill="#2c2c2c" d="M 422.5,38.5 C 426.349,38.0193 428.349,39.686 428.5,43.5C 426.5,43.5 424.5,43.5 422.5,43.5C 422.5,44.5 422.5,45.5 422.5,46.5C 424.527,46.3379 426.527,46.5045 428.5,47C 422.138,49.6477 419.638,47.481 421,40.5C 421.717,39.9558 422.217,39.2891 422.5,38.5 Z"/></g>
<g><path style="opacity:1" fill="#e7e7e7" d="M 422.5,40.5 C 424.429,40.2308 426.095,40.7308 427.5,42C 426.667,42.1667 425.833,42.3333 425,42.5C 423.624,42.3158 422.791,41.6491 422.5,40.5 Z"/></g>
<g><path style="opacity:1" fill="#333333" d="M 306.5,38.5 C 308.369,40.6353 309.036,43.3019 308.5,46.5C 309.833,46.5 311.167,46.5 312.5,46.5C 312.187,43.7531 312.52,41.0865 313.5,38.5C 314.833,41.8333 314.833,45.1667 313.5,48.5C 311.576,48.433 309.576,48.0997 307.5,47.5C 306.593,44.5788 306.26,41.5788 306.5,38.5 Z"/></g>
<g><path style="opacity:1" fill="#0a0a0a" d="M 227.5,61.5 C 227.56,60.9569 227.893,60.6236 228.5,60.5C 229.484,63.4281 229.817,66.4281 229.5,69.5C 232.263,70.4551 231.263,70.6218 226.5,70C 227.684,68.8197 228.351,67.3197 228.5,65.5C 228.489,63.9549 228.156,62.6216 227.5,61.5 Z"/></g>
<g><path style="opacity:1" fill="#4b4b4b" d="M 167.5,60.5 C 168.5,60.5 169.5,60.5 170.5,60.5C 171.833,67.1667 173.167,67.1667 174.5,60.5C 175.5,60.5 176.5,60.5 177.5,60.5C 177.82,63.8984 177.487,67.2317 176.5,70.5C 175.692,68.5767 175.192,66.5767 175,64.5C 173.445,69.7682 171.779,69.7682 170,64.5C 169.808,66.5767 169.308,68.5767 168.5,70.5C 167.513,67.2317 167.18,63.8984 167.5,60.5 Z"/></g>
<g><path style="opacity:1" fill="#232323" d="M 217.5,60.5 C 218.5,60.5 219.5,60.5 220.5,60.5C 220.5,63.5 220.5,66.5 220.5,69.5C 223.263,70.4551 222.263,70.6218 217.5,70C 218.658,68.9914 219.325,67.6581 219.5,66C 219.079,64.0107 218.412,62.1773 217.5,60.5 Z"/></g>
<g><path style="opacity:1" fill="#afafaf" d="M 253.5,61.5 C 258.833,62.5 258.833,63.5 253.5,64.5C 252.167,63.5 252.167,62.5 253.5,61.5 Z"/></g>
<g><path style="opacity:1" fill="#353535" d="M 193.5,62.5 C 196.95,61.7564 198.616,63.0897 198.5,66.5C 196.712,66.2148 195.045,66.5481 193.5,67.5C 193.709,68.086 194.043,68.586 194.5,69C 196.085,69.0848 197.418,69.2514 198.5,69.5C 191.789,70.7881 190.123,68.4548 193.5,62.5 Z"/></g>
<g><path style="opacity:1" fill="#232323" d="M 243.5,61.5 C 245.265,60.5386 247.265,60.2053 249.5,60.5C 248.754,64.0704 247.421,67.4037 245.5,70.5C 245.167,70.3333 244.833,70.1667 244.5,70C 245.929,67.3103 246.929,64.4769 247.5,61.5C 246.167,61.5 244.833,61.5 243.5,61.5 Z"/></g>
<g><path style="opacity:1" fill="#434343" d="M 262.5,60.5 C 267.151,61.1742 268.651,63.8408 267,68.5C 265.534,70.3249 263.701,70.8249 261.5,70C 266.628,68.4384 266.628,67.1051 261.5,66C 260.243,63.9235 260.576,62.0902 262.5,60.5 Z"/></g>
<g><path style="opacity:1" fill="#f4f4f4" d="M 262.5,62.5 C 263.5,62.5 264.5,62.5 265.5,62.5C 265.5,63.5 265.5,64.5 265.5,65.5C 264.5,65.5 263.5,65.5 262.5,65.5C 262.5,64.5 262.5,63.5 262.5,62.5 Z"/></g>
<g><path style="opacity:1" fill="#1c1c1c" d="M 183.5,69.5 C 180.505,71.0173 179.339,70.0173 180,66.5C 185.666,65.7389 185.832,64.5723 180.5,63C 182.112,62.2797 183.612,62.4464 185,63.5C 185.667,65.8333 185.667,68.1667 185,70.5C 184.617,69.944 184.117,69.6107 183.5,69.5 Z"/></g>
<g><path style="opacity:1" fill="#efefef" d="M 194.5,63.5 C 195.756,63.4614 196.756,63.9614 197.5,65C 196.167,65.6667 194.833,65.6667 193.5,65C 194.056,64.6174 194.389,64.1174 194.5,63.5 Z"/></g>
<g><path style="opacity:1" fill="#2c2c2c" d="M 234.5,60.5 C 236.527,60.3379 238.527,60.5045 240.5,61C 235.46,61.7438 235.293,62.9105 240,64.5C 241.45,69.8849 239.617,71.5515 234.5,69.5C 235.582,69.2514 236.915,69.0848 238.5,69C 240.009,65.3307 238.676,63.8307 234.5,64.5C 234.5,63.1667 234.5,61.8333 234.5,60.5 Z"/></g>
<g><path style="opacity:1" fill="#2b2b2b" d="M 204.5,69.5 C 203.489,67.801 202.155,66.301 200.5,65C 200.667,64.5 200.833,64 201,63.5C 201.991,64.9389 203.324,65.9389 205,66.5C 205.74,67.7494 205.573,68.7494 204.5,69.5 Z"/></g>
<g><path style="opacity:1" fill="#343434" d="M 253.5,61.5 C 254.601,60.4017 255.934,60.235 257.5,61C 258.022,61.5613 258.355,62.228 258.5,63C 258.45,65.279 258.117,67.6124 257.5,70C 252.221,70.5848 250.888,68.7514 253.5,64.5C 258.833,63.5 258.833,62.5 253.5,61.5 Z"/></g>
<g><path style="opacity:1" fill="#ececec" d="M 254.5,65.5 C 257.861,66.2032 258.194,67.5365 255.5,69.5C 253.358,68.5629 253.024,67.2296 254.5,65.5 Z"/></g>
<g><path style="opacity:1" fill="#dcdcdc" d="M 183.5,69.5 C 179.925,68.7932 179.758,67.7932 183,66.5C 184.683,67.1765 184.85,68.1765 183.5,69.5 Z"/></g>
<g><path style="opacity:1" fill="#262626" d="M 204.5,69.5 C 203.292,70.782 201.958,70.782 200.5,69.5C 201.557,69.0941 202.891,69.0941 204.5,69.5 Z"/></g>
<g><path style="opacity:1" fill="#1f77b4" d="M 495.5,241.5 C 439.331,241.168 383.331,241.501 327.5,242.5C 282.877,275.79 238.544,309.456 194.5,343.5C 178.754,323.827 168.254,301.494 163,276.5C 151.43,204.509 174.596,146.676 232.5,103C 281.101,71.589 332.768,65.589 387.5,85C 449.562,111.087 485.395,157.587 495,224.5C 495.499,230.157 495.666,235.824 495.5,241.5 Z"/></g>
<g><path style="opacity:1" fill="#164060" d="M 312.5,144.5 C 309.013,146.293 307.513,145.293 308,141.5C 311.15,139.839 312.65,140.839 312.5,144.5 Z"/></g>
<g><path style="opacity:1" fill="#0f273a" d="M 282.5,140.5 C 288.786,141.315 290.12,144.481 286.5,150C 284.567,150.783 283.067,150.283 282,148.5C 281.398,145.779 281.565,143.113 282.5,140.5 Z"/></g>
<g><path style="opacity:1" fill="#1d71ac" d="M 283.5,141.5 C 285.89,141.685 286.89,143.018 286.5,145.5C 286.658,147.319 285.991,148.652 284.5,149.5C 283.52,146.914 283.187,144.247 283.5,141.5 Z"/></g>
<g><path style="opacity:1" fill="#0e2233" d="M 296.5,144.5 C 301.041,144.815 302.041,146.649 299.5,150C 297.741,150.798 296.074,150.631 294.5,149.5C 295.582,149.251 296.915,149.085 298.5,149C 298.957,148.586 299.291,148.086 299.5,147.5C 298.007,146.859 297.007,145.859 296.5,144.5 Z"/></g>
<g><path style="opacity:1" fill="#12314a" d="M 274.5,140.5 C 275.873,140.343 277.207,140.51 278.5,141C 273.306,142.344 273.306,143.511 278.5,144.5C 280.137,150.552 278.303,151.885 273,148.5C 272.109,145.502 272.609,142.836 274.5,140.5 Z"/></g>
<g><path style="opacity:1" fill="#164568" d="M 312.5,144.5 C 313.825,143.047 314.658,143.381 315,145.5C 317.085,144.353 318.585,145.02 319.5,147.5C 317.561,151.274 315.395,151.274 313,147.5C 312.28,149.255 311.113,150.089 309.5,150C 310.758,148.259 311.758,146.426 312.5,144.5 Z"/></g>
<g><path style="opacity:1" fill="#5fae72" d="M 327.5,242.5 C 383.331,241.501 439.331,241.168 495.5,241.5C 495.5,241.833 495.5,242.167 495.5,242.5C 478.5,242.5 461.5,242.5 444.5,242.5C 444.167,242.5 443.833,242.5 443.5,242.5C 442.167,242.5 440.833,242.5 439.5,242.5C 438.5,242.5 437.5,242.5 436.5,242.5C 433.5,242.5 430.5,242.5 427.5,242.5C 425.833,242.5 424.167,242.5 422.5,242.5C 419.833,242.5 417.167,242.5 414.5,242.5C 412.833,242.5 411.167,242.5 409.5,242.5C 384.994,242.169 360.661,242.502 336.5,243.5C 333.518,243.037 330.518,242.704 327.5,242.5 Z"/></g>
<g><path style="opacity:1" fill="#fe7f0e" d="M 327.5,242.5 C 330.518,242.704 333.518,243.037 336.5,243.5C 387.779,250.873 439.113,257.873 490.5,264.5C 491.209,265.404 492.209,265.737 493.5,265.5C 483.087,326.17 450.087,369.67 394.5,396C 319.148,424.035 253.981,408.869 199,350.5C 197.25,348.266 195.75,345.932 194.5,343.5C 238.544,309.456 282.877,275.79 327.5,242.5 Z"/></g>
<g><path style="opacity:1" fill="#349f2e" d="M 336.5,243.5 C 360.661,242.502 384.994,242.169 409.5,242.5C 409.441,244.765 410.274,245.098 412,243.5C 413.28,243.613 414.113,244.28 414.5,245.5C 412.833,247.5 411.167,249.5 409.5,251.5C 411.421,252.641 413.421,252.808 415.5,252C 414.167,251.667 412.833,251.333 411.5,251C 415.202,248.997 416.202,246.164 414.5,242.5C 417.167,242.5 419.833,242.5 422.5,242.5C 422.369,243.376 422.702,244.043 423.5,244.5C 424.72,243.289 425.887,243.289 427,244.5C 427,245.833 427,247.167 427,248.5C 428.8,246.635 428.966,244.635 427.5,242.5C 430.5,242.5 433.5,242.5 436.5,242.5C 434.889,244.833 435.389,246.5 438,247.5C 440.611,246.5 441.111,244.833 439.5,242.5C 440.833,242.5 442.167,242.5 443.5,242.5C 441.116,246.29 441.616,249.623 445,252.5C 447.319,251.591 447.986,249.925 447,247.5C 445.795,246.929 444.628,246.262 443.5,245.5C 444.127,244.583 444.461,243.583 444.5,242.5C 461.5,242.5 478.5,242.5 495.5,242.5C 494.882,249.817 494.549,257.151 494.5,264.5C 493.167,264.5 491.833,264.5 490.5,264.5C 439.113,257.873 387.779,250.873 336.5,243.5 Z"/></g>
<g><path style="opacity:1" fill="#0f280d" d="M 422.5,242.5 C 424.167,242.5 425.833,242.5 427.5,242.5C 428.966,244.635 428.8,246.635 427,248.5C 427,247.167 427,245.833 427,244.5C 425.887,243.289 424.72,243.289 423.5,244.5C 422.702,244.043 422.369,243.376 422.5,242.5 Z"/></g>
<g><path style="opacity:1" fill="#133e13" d="M 436.5,242.5 C 437.5,242.5 438.5,242.5 439.5,242.5C 441.111,244.833 440.611,246.5 438,247.5C 435.389,246.5 434.889,244.833 436.5,242.5 Z"/></g>
<g><path style="opacity:1" fill="#175017" d="M 443.5,242.5 C 443.833,242.5 444.167,242.5 444.5,242.5C 444.461,243.583 444.127,244.583 443.5,245.5C 444.628,246.262 445.795,246.929 447,247.5C 447.986,249.925 447.319,251.591 445,252.5C 441.616,249.623 441.116,246.29 443.5,242.5 Z"/></g>
<g><path style="opacity:1" fill="#3f3f3f" d="M 534.5,255.5 C 533.842,256.398 533.176,257.398 532.5,258.5C 531.167,254.833 531.167,251.167 532.5,247.5C 533.08,249.637 534.08,251.47 535.5,253C 534.748,253.671 534.414,254.504 534.5,255.5 Z"/></g>
<g><path style="opacity:1" fill="#0d1c09" d="M 409.5,242.5 C 411.167,242.5 412.833,242.5 414.5,242.5C 416.202,246.164 415.202,248.997 411.5,251C 412.833,251.333 414.167,251.667 415.5,252C 413.421,252.808 411.421,252.641 409.5,251.5C 411.167,249.5 412.833,247.5 414.5,245.5C 414.113,244.28 413.28,243.613 412,243.5C 410.274,245.098 409.441,244.765 409.5,242.5 Z"/></g>
<g><path style="opacity:1" fill="#464646" d="M 518.5,257.5 C 516.511,258.887 514.678,258.553 513,256.5C 513.005,245.833 513.672,245.833 515,256.5C 516.011,257.337 517.178,257.67 518.5,257.5 Z"/></g>
<g><path style="opacity:1" fill="#1a1a1a" d="M 518.5,257.5 C 519.137,254.544 519.637,251.544 520,248.5C 520.667,251.167 520.667,253.833 520,256.5C 519.617,257.056 519.117,257.389 518.5,257.5 Z"/></g>
<g><path style="opacity:1" fill="#1c1c1c" d="M 586.5,251.5 C 586.415,250.005 587.081,249.005 588.5,248.5C 589.036,250.969 590.036,253.136 591.5,255C 590.151,255.772 589.318,256.939 589,258.5C 588.517,257.552 588.351,256.552 588.5,255.5C 587.167,255.5 585.833,255.5 584.5,255.5C 584.229,253.62 584.896,252.287 586.5,251.5 Z"/></g>
<g><path style="opacity:1" fill="#525252" d="M 597.5,249.5 C 595.774,249.815 594.107,249.981 592.5,250C 594.148,248.323 595.815,248.156 597.5,249.5 Z"/></g>
<g><path style="opacity:1" fill="#000300" d="M 423.5,250.5 C 425.086,251.148 426.753,251.648 428.5,252C 426.5,252.667 424.5,252.667 422.5,252C 423.056,251.617 423.389,251.117 423.5,250.5 Z"/></g>
<g><path style="opacity:1" fill="#535353" d="M 522.5,250.5 C 529.232,249.482 531.232,252.148 528.5,258.5C 527.041,249.39 525.374,249.39 523.5,258.5C 522.52,255.914 522.187,253.247 522.5,250.5 Z"/></g>
<g><path style="opacity:1" fill="#4c4c4c" d="M 539.5,250.5 C 545.853,249.867 547.853,252.534 545.5,258.5C 544.041,249.39 542.374,249.39 540.5,258.5C 539.52,255.914 539.187,253.247 539.5,250.5 Z"/></g>
<g><path style="opacity:1" fill="#0f3910" d="M 418.5,250.5 C 420.337,250.639 420.67,251.306 419.5,252.5C 418.702,252.043 418.369,251.376 418.5,250.5 Z"/></g>
<g><path style="opacity:1" fill="#383838" d="M 568.5,250.5 C 573.041,250.331 573.374,250.998 569.5,252.5C 571.053,253.439 572.387,254.606 573.5,256C 572.591,258.319 570.925,258.986 568.5,258C 570.044,257.71 571.377,257.044 572.5,256C 568.801,255.513 567.468,253.679 568.5,250.5 Z"/></g>
<g><path style="opacity:1" fill="#f1f1f1" d="M 586.5,251.5 C 587.117,251.389 587.617,251.056 588,250.5C 588.49,251.793 588.657,253.127 588.5,254.5C 587.448,254.649 586.448,254.483 585.5,254C 586.252,253.329 586.586,252.496 586.5,251.5 Z"/></g>
<g><path style="opacity:1" fill="#4e4e4e" d="M 613.5,250.5 C 613.573,252.027 612.906,253.027 611.5,253.5C 611.427,251.973 612.094,250.973 613.5,250.5 Z"/></g>
<g><path style="opacity:1" fill="#efefef" d="M 613.5,250.5 C 614.434,251.568 614.768,252.901 614.5,254.5C 613.209,254.737 612.209,254.404 611.5,253.5C 612.906,253.027 613.573,252.027 613.5,250.5 Z"/></g>
<g><path style="opacity:1" fill="#5c5c5c" d="M 575.5,251.5 C 577.337,251.639 577.67,252.306 576.5,253.5C 575.702,253.043 575.369,252.376 575.5,251.5 Z"/></g>
<g><path style="opacity:1" fill="#3d3d3d" d="M 597.5,249.5 C 598.497,249.47 599.164,249.97 599.5,251C 598.917,253.499 597.584,255.499 595.5,257C 596.833,257.333 598.167,257.667 599.5,258C 592.898,259.074 592.065,257.574 597,253.5C 597.49,252.207 597.657,250.873 597.5,249.5 Z"/></g>
<g><path style="opacity:1" fill="#2c2c2c" d="M 611.5,253.5 C 612.209,254.404 613.209,254.737 614.5,254.5C 614.768,252.901 614.434,251.568 613.5,250.5C 613.811,249.522 614.478,248.855 615.5,248.5C 616.221,250.686 616.887,252.853 617.5,255C 616.929,256.205 616.262,257.372 615.5,258.5C 614.614,257.675 614.281,256.675 614.5,255.5C 613.022,255.762 611.689,255.429 610.5,254.5C 610.624,253.893 610.957,253.56 611.5,253.5 Z"/></g>
<g><path style="opacity:1" fill="#525252" d="M 534.5,255.5 C 536.196,255.685 537.529,256.519 538.5,258C 536.588,258.279 535.254,257.446 534.5,255.5 Z"/></g>
<g><path style="opacity:1" fill="#4a4a4a" d="M 556.5,250.5 C 558.067,251.681 558.901,253.347 559,255.5C 560.141,249.617 561.808,249.284 564,254.5C 564.219,253.062 564.719,251.729 565.5,250.5C 565.833,250.833 566.167,251.167 566.5,251.5C 565.811,253.444 565.311,255.444 565,257.5C 564.586,257.957 564.086,258.291 563.5,258.5C 562.757,257.092 561.923,255.759 561,254.5C 560.71,256.044 560.044,257.377 559,258.5C 557.659,255.978 556.826,253.311 556.5,250.5 Z"/></g>
<g><path style="opacity:1" fill="#161616" d="M 602.5,256.5 C 604.414,257.185 606.414,257.685 608.5,258C 606.167,258.667 603.833,258.667 601.5,258C 602.056,257.617 602.389,257.117 602.5,256.5 Z"/></g>
<g><path style="opacity:1" fill="#222222" d="M 549.5,250.5 C 551.144,250.286 552.644,250.62 554,251.5C 554.758,253.769 554.591,255.936 553.5,258C 551.888,258.72 550.388,258.554 549,257.5C 548.297,255.071 548.463,252.738 549.5,250.5 Z"/></g>
<g><path style="opacity:1" fill="#eeeeee" d="M 550.5,251.5 C 552.484,251.484 553.484,252.484 553.5,254.5C 552.167,258.5 550.833,258.5 549.5,254.5C 549.685,253.416 550.018,252.416 550.5,251.5 Z"/></g>
<g><path style="opacity:1" fill="#5c5c5c" d="M 575.5,256.5 C 577.337,256.639 577.67,257.306 576.5,258.5C 575.702,258.043 575.369,257.376 575.5,256.5 Z"/></g>
<g><path style="opacity:1" fill="#321a05" d="M 365.5,334.5 C 366.5,333.167 367.5,333.167 368.5,334.5C 368.5,335.833 368.5,337.167 368.5,338.5C 367.209,338.737 366.209,338.404 365.5,337.5C 368.167,336.5 368.167,335.5 365.5,334.5 Z"/></g>
<g><path style="opacity:1" fill="#ac5711" d="M 365.5,334.5 C 368.167,335.5 368.167,336.5 365.5,337.5C 364.167,336.5 364.167,335.5 365.5,334.5 Z"/></g>
<g><path style="opacity:1" fill="#5b2d07" d="M 371.5,336.5 C 371.461,335.244 371.961,334.244 373,333.5C 373.585,334.998 373.085,335.998 371.5,336.5 Z"/></g>
<g><path style="opacity:1" fill="#291604" d="M 338.5,334.5 C 340.265,333.539 342.265,333.205 344.5,333.5C 343.754,337.07 342.421,340.404 340.5,343.5C 340.167,343.333 339.833,343.167 339.5,343C 341.196,340.413 342.196,337.579 342.5,334.5C 341.167,334.5 339.833,334.5 338.5,334.5 Z"/></g>
<g><path style="opacity:1" fill="#2d1804" d="M 351.5,333.5 C 353.527,333.338 355.527,333.505 357.5,334C 352.46,334.744 352.293,335.91 357,337.5C 358.45,342.885 356.617,344.552 351.5,342.5C 352.582,342.251 353.915,342.085 355.5,342C 357.009,338.331 355.676,336.831 351.5,337.5C 351.5,336.167 351.5,334.833 351.5,333.5 Z"/></g>
<g><path style="opacity:1" fill="#8d460b" d="M 368.5,334.5 C 369.268,335.263 369.768,336.263 370,337.5C 370.383,336.944 370.883,336.611 371.5,336.5C 370.443,338.941 369.11,341.275 367.5,343.5C 367.167,343.333 366.833,343.167 366.5,343C 367.582,341.67 368.249,340.17 368.5,338.5C 368.5,337.167 368.5,335.833 368.5,334.5 Z"/></g>
<g><path style="opacity:1" fill="#381d04" d="M 334.5,338.5 C 337.106,339.85 337.106,341.35 334.5,343C 332.741,343.798 331.074,343.631 329.5,342.5C 330.582,342.251 331.915,342.085 333.5,342C 334.337,340.989 334.67,339.822 334.5,338.5 Z"/></g>
<g><path style="opacity:1" fill="#6f380d" d="M 347.5,341.5 C 349.337,341.639 349.67,342.306 348.5,343.5C 347.702,343.043 347.369,342.376 347.5,341.5 Z"/></g>
<g><path style="opacity:1" fill="#666666" d="M 413.5,413.5 C 414.787,414.871 415.453,416.705 415.5,419C 415.167,420.833 414.833,422.667 414.5,424.5C 413.511,420.893 413.177,417.226 413.5,413.5 Z"/></g>
<g><path style="opacity:1" fill="#404040" d="M 375.5,414.5 C 377.527,414.338 379.527,414.505 381.5,415C 380.207,415.49 378.873,415.657 377.5,415.5C 377.5,416.5 377.5,417.5 377.5,418.5C 382.833,418.833 382.833,419.167 377.5,419.5C 377.785,421.288 377.452,422.955 376.5,424.5C 375.513,421.232 375.18,417.898 375.5,414.5 Z"/></g>
<g><path style="opacity:1" fill="#242424" d="M 442.5,415.5 C 444.364,414.207 446.364,414.207 448.5,415.5C 447.436,418.627 446.103,421.627 444.5,424.5C 444.167,424.167 443.833,423.833 443.5,423.5C 444.695,421.249 445.695,418.915 446.5,416.5C 445.311,415.571 443.978,415.238 442.5,415.5 Z"/></g>
<g><path style="opacity:1" fill="#040404" d="M 478.5,415.5 C 479.209,414.596 480.209,414.263 481.5,414.5C 480.989,418.03 481.656,421.196 483.5,424C 481.833,424.667 480.167,424.667 478.5,424C 479.684,422.82 480.351,421.32 480.5,419.5C 480.415,417.667 479.748,416.334 478.5,415.5 Z"/></g>
<g><path style="opacity:1" fill="#121212" d="M 398.5,417.5 C 397.79,419.746 397.29,422.08 397,424.5C 395.333,415.167 393.667,415.167 392,424.5C 391.503,421.854 391.336,419.187 391.5,416.5C 393.903,416.448 396.236,416.781 398.5,417.5 Z"/></g>
<g><path style="opacity:1" fill="#232323" d="M 451.5,414.5 C 452.5,414.5 453.5,414.5 454.5,414.5C 454.5,417.5 454.5,420.5 454.5,423.5C 457.263,424.455 456.263,424.622 451.5,424C 452.658,422.991 453.325,421.658 453.5,420C 453.079,418.011 452.412,416.177 451.5,414.5 Z"/></g>
<g><path style="opacity:1" fill="#424242" d="M 460.5,420.5 C 458.435,415.396 460.101,413.563 465.5,415C 465.459,417.732 465.626,420.566 466,423.5C 464.274,424.576 462.441,424.743 460.5,424C 459.209,422.708 459.209,421.542 460.5,420.5 Z"/></g>
<g><path style="opacity:1" fill="#e7e7e7" d="M 461.5,415.5 C 462.5,415.5 463.5,415.5 464.5,415.5C 464.5,416.5 464.5,417.5 464.5,418.5C 463.5,418.5 462.5,418.5 461.5,418.5C 461.5,417.5 461.5,416.5 461.5,415.5 Z"/></g>
<g><path style="opacity:1" fill="#3c3c3c" d="M 473.5,418.5 C 472.5,418.5 471.5,418.5 470.5,418.5C 470.5,420.167 470.5,421.833 470.5,423.5C 467.855,420.783 467.855,417.95 470.5,415C 471.833,414.333 473.167,414.333 474.5,415C 469.955,415.939 469.622,417.106 473.5,418.5 Z"/></g>
<g><path style="opacity:1" fill="#2b2b2b" d="M 384.5,417.5 C 387.676,415.727 389.343,416.727 389.5,420.5C 383.304,420.574 382.97,421.741 388.5,424C 385.143,425.141 383.143,423.975 382.5,420.5C 382.453,418.962 383.12,417.962 384.5,417.5 Z"/></g>
<g><path style="opacity:1" fill="#e0e0e0" d="M 384.5,417.5 C 386.103,417.312 387.437,417.812 388.5,419C 386.537,419.844 385.204,419.344 384.5,417.5 Z"/></g>
<g><path style="opacity:1" fill="#151515" d="M 398.5,417.5 C 399.542,416.209 400.708,416.209 402,417.5C 402.667,419.833 402.667,422.167 402,424.5C 401.667,422.5 401.333,420.5 401,418.5C 400.329,417.748 399.496,417.414 398.5,417.5 Z"/></g>
<g><path style="opacity:1" fill="#212121" d="M 418.5,416.5 C 421.95,415.756 423.616,417.09 423.5,420.5C 421.712,420.215 420.045,420.548 418.5,421.5C 418.709,422.086 419.043,422.586 419.5,423C 421.085,423.085 422.418,423.251 423.5,423.5C 421.926,424.631 420.259,424.798 418.5,424C 417.221,421.502 417.221,419.002 418.5,416.5 Z"/></g>
<g><path style="opacity:1" fill="#f3f3f3" d="M 419.5,417.5 C 420.756,417.461 421.756,417.961 422.5,419C 421.167,419.667 419.833,419.667 418.5,419C 419.056,418.617 419.389,418.117 419.5,417.5 Z"/></g>
<g><path style="opacity:1" fill="#c4c4c4" d="M 473.5,418.5 C 473.5,420.167 473.5,421.833 473.5,423.5C 472.5,424.833 471.5,424.833 470.5,423.5C 470.5,421.833 470.5,420.167 470.5,418.5C 471.5,418.5 472.5,418.5 473.5,418.5 Z"/></g>
<g><path style="opacity:1" fill="#dbdbdb" d="M 460.5,420.5 C 461.708,419.766 463.041,419.433 464.5,419.5C 464.5,420.833 464.5,422.167 464.5,423.5C 462.027,423.912 460.694,422.912 460.5,420.5 Z"/></g>
<g><path style="opacity:1" fill="#3e3e3e" d="M 409.5,417.5 C 410.117,417.611 410.617,417.944 411,418.5C 411.495,420.473 411.662,422.473 411.5,424.5C 409.473,424.662 407.473,424.495 405.5,424C 404.978,423.439 404.645,422.772 404.5,422C 406.09,420.368 407.756,418.868 409.5,417.5 Z"/></g>
<g><path style="opacity:1" fill="#e5e5e5" d="M 406.5,420.5 C 409.957,420.667 410.29,421.667 407.5,423.5C 406.614,422.675 406.281,421.675 406.5,420.5 Z"/></g>
<g><path style="opacity:1" fill="#404040" d="M 426.5,416.5 C 431.041,416.331 431.374,416.998 427.5,418.5C 433.124,422.915 432.457,424.582 425.5,423.5C 426.687,423.446 428.02,423.113 429.5,422.5C 427.947,421.561 426.613,420.394 425.5,419C 425.743,418.098 426.077,417.265 426.5,416.5 Z"/></g>
<g><path style="opacity:1" fill="#454545" d="M 473.5,418.5 C 476.167,420.167 476.167,421.833 473.5,423.5C 473.5,421.833 473.5,420.167 473.5,418.5 Z"/></g>
<g><path style="opacity:1" fill="#6e6e6e" d="M 433.5,422.5 C 435.337,422.639 435.67,423.306 434.5,424.5C 433.702,424.043 433.369,423.376 433.5,422.5 Z"/></g>
</svg>
