<?xml version="1.0" encoding="UTF-8"?>
<!DOCTYPE svg PUBLIC "-//W3C//DTD SVG 1.1//EN" "http://www.w3.org/Graphics/SVG/1.1/DTD/svg11.dtd">
<svg xmlns="http://www.w3.org/2000/svg" version="1.1" width="640px" height="480px" style="shape-rendering:geometricPrecision; text-rendering:geometricPrecision; image-rendering:optimizeQuality; fill-rule:evenodd; clip-rule:evenodd" xmlns:xlink="http://www.w3.org/1999/xlink">
<g><path style="opacity:1" fill="#fefefe" d="M -0.5,-0.5 C 212.833,-0.5 426.167,-0.5 639.5,-0.5C 639.5,159.5 639.5,319.5 639.5,479.5C 426.167,479.5 212.833,479.5 -0.5,479.5C -0.5,319.5 -0.5,159.5 -0.5,-0.5 Z"/></g>
<g><path style="opacity:1" fill="#1f76b3" d="M 327.5,74.5 C 327.5,130.167 327.5,185.833 327.5,241.5C 326.041,241.433 324.708,241.766 323.5,242.5C 269.489,249.76 215.489,257.094 161.5,264.5C 155.907,226.623 162.741,190.957 182,157.5C 187.356,149.327 192.856,141.327 198.5,133.5C 232.774,94.5262 275.774,74.8595 327.5,74.5 Z"/></g>
<g><path style="opacity:1" fill="#2c9f2c" d="M 327.5,74.5 C 391.091,76.1993 439.591,103.866 473,157.5C 500.414,208.001 502.748,259.668 480,312.5C 469.023,335.141 454.19,354.808 435.5,371.5C 389.9,406.789 338.9,417.622 282.5,404C 227.522,386.518 189.522,351.018 168.5,297.5C 168.5,296.5 168.5,295.5 168.5,294.5C 193.693,285.769 219.026,277.436 244.5,269.5C 245.167,269.5 245.5,269.167 245.5,268.5C 271.784,260.405 297.784,251.739 323.5,242.5C 324.708,241.766 326.041,241.433 327.5,241.5C 327.5,185.833 327.5,130.167 327.5,74.5 Z"/></g>
<g><path style="opacity:1" fill="#4b4b4b" d="M 149.5,114.5 C 150.5,114.5 151.5,114.5 152.5,114.5C 153.833,121.167 155.167,121.167 156.5,114.5C 157.5,114.5 158.5,114.5 159.5,114.5C 159.82,117.898 159.487,121.232 158.5,124.5C 157.692,122.577 157.192,120.577 157,118.5C 155.445,123.768 153.779,123.768 152,118.5C 151.808,120.577 151.308,122.577 150.5,124.5C 149.513,121.232 149.18,117.898 149.5,114.5 Z"/></g>
<g><path style="opacity:1" fill="#353535" d="M 174.5,116.5 C 177.95,115.756 179.616,117.09 179.5,120.5C 177.712,120.215 176.045,120.548 174.5,121.5C 174.709,122.086 175.043,122.586 175.5,123C 177.085,123.085 178.418,123.251 179.5,123.5C 172.789,124.788 171.123,122.455 174.5,116.5 Z"/></g>
<g><path style="opacity:1" fill="#1c1c1c" d="M 164.5,123.5 C 161.505,125.017 160.339,124.017 161,120.5C 166.666,119.739 166.832,118.572 161.5,117C 163.112,116.28 164.612,116.446 166,117.5C 166.667,119.833 166.667,122.167 166,124.5C 165.617,123.944 165.117,123.611 164.5,123.5 Z"/></g>
<g><path style="opacity:1" fill="#efefef" d="M 175.5,117.5 C 176.756,117.461 177.756,117.961 178.5,119C 177.167,119.667 175.833,119.667 174.5,119C 175.056,118.617 175.389,118.117 175.5,117.5 Z"/></g>
<g><path style="opacity:1" fill="#2b2b2b" d="M 185.5,123.5 C 184.489,121.801 183.155,120.301 181.5,119C 181.667,118.5 181.833,118 182,117.5C 182.991,118.939 184.324,119.939 186,120.5C 186.74,121.749 186.573,122.749 185.5,123.5 Z"/></g>
<g><path style="opacity:1" fill="#dcdcdc" d="M 164.5,123.5 C 160.925,122.793 160.758,121.793 164,120.5C 165.683,121.176 165.85,122.176 164.5,123.5 Z"/></g>
<g><path style="opacity:1" fill="#262626" d="M 185.5,123.5 C 184.292,124.782 182.958,124.782 181.5,123.5C 182.557,123.094 183.891,123.094 185.5,123.5 Z"/></g>
<g><path style="opacity:1" fill="#0b161f" d="M 230.5,169.5 C 237.737,170.272 238.403,173.106 232.5,178C 233.833,178.333 235.167,178.667 236.5,179C 234.421,179.808 232.421,179.641 230.5,178.5C 232.167,176.5 233.833,174.5 235.5,172.5C 234.38,170.404 232.88,170.07 231,171.5C 230.536,170.906 230.369,170.239 230.5,169.5 Z"/></g>
<g><path style="opacity:1" fill="#0a141d" d="M 239.5,170.5 C 241.265,169.539 243.265,169.205 245.5,169.5C 244.754,173.07 243.421,176.404 241.5,179.5C 241.167,179.333 240.833,179.167 240.5,179C 242.196,176.413 243.196,173.579 243.5,170.5C 242.167,170.5 240.833,170.5 239.5,170.5 Z"/></g>
<g><path style="opacity:1" fill="#113855" d="M 267.5,171.5 C 268.749,172.778 270.249,173.778 272,174.5C 273.254,178.111 272.088,179.611 268.5,179C 267.809,177.933 267.309,176.766 267,175.5C 266.667,175.833 266.333,176.167 266,176.5C 266.134,174.811 266.634,173.144 267.5,171.5 Z"/></g>
<g><path style="opacity:1" fill="#09151f" d="M 252.5,169.5 C 259.737,170.272 260.403,173.106 254.5,178C 255.833,178.333 257.167,178.667 258.5,179C 256.421,179.808 254.421,179.641 252.5,178.5C 254.167,176.5 255.833,174.5 257.5,172.5C 256.38,170.404 254.88,170.07 253,171.5C 252.536,170.906 252.369,170.239 252.5,169.5 Z"/></g>
<g><path style="opacity:1" fill="#788792" d="M 198.5,133.5 C 192.856,141.327 187.356,149.327 182,157.5C 162.741,190.957 155.907,226.623 161.5,264.5C 161.5,265.833 161.5,267.167 161.5,268.5C 159.585,268.216 157.919,268.549 156.5,269.5C 149.356,217.602 163.356,172.268 198.5,133.5 Z"/></g>
<g><path style="opacity:1" fill="#fa7e12" d="M 323.5,242.5 C 297.784,251.739 271.784,260.405 245.5,268.5C 245.66,266.801 245.494,265.134 245,263.5C 244.801,265.402 243.967,266.902 242.5,268C 243.416,268.278 244.082,268.778 244.5,269.5C 219.026,277.436 193.693,285.769 168.5,294.5C 165.563,286.094 163.23,277.428 161.5,268.5C 161.5,267.167 161.5,265.833 161.5,264.5C 215.489,257.094 269.489,249.76 323.5,242.5 Z"/></g>
<g><path style="opacity:1" fill="#2c1703" d="M 212.5,258.5 C 219.737,259.272 220.403,262.106 214.5,267C 215.833,267.333 217.167,267.667 218.5,268C 216.421,268.808 214.421,268.641 212.5,267.5C 214.167,265.5 215.833,263.5 217.5,261.5C 216.38,259.404 214.88,259.07 213,260.5C 212.536,259.906 212.369,259.239 212.5,258.5 Z"/></g>
<g><path style="opacity:1" fill="#ac5711" d="M 235.5,259.5 C 238.167,260.5 238.167,261.5 235.5,262.5C 234.167,261.5 234.167,260.5 235.5,259.5 Z"/></g>
<g><path style="opacity:1" fill="#5b2d07" d="M 241.5,261.5 C 241.461,260.244 241.961,259.244 243,258.5C 243.585,259.998 243.085,260.998 241.5,261.5 Z"/></g>
<g><path style="opacity:1" fill="#73390c" d="M 235.5,259.5 C 238.234,258.016 239.734,259.016 240,262.5C 240.383,261.944 240.883,261.611 241.5,261.5C 240.443,263.941 239.11,266.275 237.5,268.5C 237.167,268.333 236.833,268.167 236.5,268C 239.463,265.351 239.13,263.518 235.5,262.5C 238.167,261.5 238.167,260.5 235.5,259.5 Z"/></g>
<g><path style="opacity:1" fill="#321a05" d="M 230.5,259.5 C 233.145,262.217 233.145,265.05 230.5,268C 229.167,268.667 227.833,268.667 226.5,268C 231.987,266.13 231.82,264.63 226,263.5C 225.006,258.985 226.506,257.651 230.5,259.5 Z"/></g>
<g><path style="opacity:1" fill="#df6e0c" d="M 230.5,259.5 C 230.5,260.833 230.5,262.167 230.5,263.5C 228.654,263.778 227.32,263.111 226.5,261.5C 227.32,259.889 228.654,259.222 230.5,259.5 Z"/></g>
<g><path style="opacity:1" fill="#5c2d05" d="M 221.5,266.5 C 223.337,266.639 223.67,267.306 222.5,268.5C 221.702,268.043 221.369,267.376 221.5,266.5 Z"/></g>
<g><path style="opacity:1" fill="#5a3a13" d="M 245.5,268.5 C 245.5,269.167 245.167,269.5 244.5,269.5C 244.082,268.778 243.416,268.278 242.5,268C 243.967,266.902 244.801,265.402 245,263.5C 245.494,265.134 245.66,266.801 245.5,268.5 Z"/></g>
<g><path style="opacity:1" fill="#9f8874" d="M 161.5,268.5 C 163.23,277.428 165.563,286.094 168.5,294.5C 168.5,295.5 168.5,296.5 168.5,297.5C 165.715,296.916 164.048,297.916 163.5,300.5C 159.782,290.592 157.449,280.258 156.5,269.5C 157.919,268.549 159.585,268.216 161.5,268.5 Z"/></g>
<g><path style="opacity:1" fill="#393939" d="M 99.5,280.5 C 102.676,278.727 104.343,279.727 104.5,283.5C 98.3036,283.574 97.9703,284.741 103.5,287C 99.6518,287.987 97.6518,286.487 97.5,282.5C 96.1667,282.5 94.8333,282.5 93.5,282.5C 93.7852,284.288 93.4519,285.955 92.5,287.5C 91.513,284.232 91.1796,280.898 91.5,277.5C 93.5273,277.338 95.5273,277.505 97.5,278C 96.2068,278.49 94.8734,278.657 93.5,278.5C 93.5,279.5 93.5,280.5 93.5,281.5C 95.6208,281.675 97.6208,281.341 99.5,280.5 Z"/></g>
<g><path style="opacity:1" fill="#121212" d="M 113.5,280.5 C 112.79,282.746 112.29,285.08 112,287.5C 110.333,278.167 108.667,278.167 107,287.5C 106.503,284.854 106.336,282.187 106.5,279.5C 108.903,279.448 111.236,279.781 113.5,280.5 Z"/></g>
<g><path style="opacity:1" fill="#e0e0e0" d="M 99.5,280.5 C 101.103,280.312 102.437,280.812 103.5,282C 101.537,282.844 100.204,282.344 99.5,280.5 Z"/></g>
<g><path style="opacity:1" fill="#151515" d="M 113.5,280.5 C 114.542,279.209 115.708,279.209 117,280.5C 117.667,282.833 117.667,285.167 117,287.5C 116.667,285.5 116.333,283.5 116,281.5C 115.329,280.748 114.496,280.414 113.5,280.5 Z"/></g>
<g><path style="opacity:1" fill="#212121" d="M 133.5,279.5 C 136.95,278.756 138.616,280.09 138.5,283.5C 136.712,283.215 135.045,283.548 133.5,284.5C 133.709,285.086 134.043,285.586 134.5,286C 136.085,286.085 137.418,286.251 138.5,286.5C 136.926,287.631 135.259,287.798 133.5,287C 132.221,284.502 132.221,282.002 133.5,279.5 Z"/></g>
<g><path style="opacity:1" fill="#f3f3f3" d="M 134.5,280.5 C 135.756,280.461 136.756,280.961 137.5,282C 136.167,282.667 134.833,282.667 133.5,282C 134.056,281.617 134.389,281.117 134.5,280.5 Z"/></g>
<g><path style="opacity:1" fill="#3e3e3e" d="M 124.5,280.5 C 125.117,280.611 125.617,280.944 126,281.5C 126.495,283.473 126.662,285.473 126.5,287.5C 124.473,287.662 122.473,287.495 120.5,287C 119.978,286.439 119.645,285.772 119.5,285C 121.09,283.368 122.756,281.868 124.5,280.5 Z"/></g>
<g><path style="opacity:1" fill="#e5e5e5" d="M 121.5,283.5 C 124.957,283.667 125.29,284.667 122.5,286.5C 121.614,285.675 121.281,284.675 121.5,283.5 Z"/></g>
<g><path style="opacity:1" fill="#404040" d="M 141.5,279.5 C 146.041,279.331 146.374,279.998 142.5,281.5C 148.124,285.915 147.457,287.582 140.5,286.5C 141.687,286.446 143.02,286.113 144.5,285.5C 142.947,284.561 141.613,283.394 140.5,282C 140.743,281.098 141.077,280.265 141.5,279.5 Z"/></g>
<g><path style="opacity:1" fill="#0e230b" d="M 393.5,298.5 C 390.916,299.048 389.916,300.715 390.5,303.5C 387.855,300.783 387.855,297.95 390.5,295C 391.833,294.333 393.167,294.333 394.5,295C 389.955,295.939 389.622,297.106 393.5,298.5 Z"/></g>
<g><path style="opacity:1" fill="#7c917c" d="M 168.5,297.5 C 189.522,351.018 227.522,386.518 282.5,404C 338.9,417.622 389.9,406.789 435.5,371.5C 408.382,396.216 376.382,410.383 339.5,414C 271.279,418.47 218.112,392.636 180,336.5C 173.136,325.106 167.636,313.106 163.5,300.5C 164.048,297.916 165.715,296.916 168.5,297.5 Z"/></g>
<g><path style="opacity:1" fill="#279127" d="M 393.5,298.5 C 393.5,300.167 393.5,301.833 393.5,303.5C 392.5,303.5 391.5,303.5 390.5,303.5C 389.916,300.715 390.916,299.048 393.5,298.5 Z"/></g>
<g><path style="opacity:1" fill="#0d1f0a" d="M 398.5,294.5 C 404.786,295.315 406.12,298.481 402.5,304C 401.167,304.667 399.833,304.667 398.5,304C 403.987,302.13 403.82,300.63 398,299.5C 397.36,297.735 397.527,296.068 398.5,294.5 Z"/></g>
<g><path style="opacity:1" fill="#299729" d="M 399.5,295.5 C 402.861,296.203 403.194,297.537 400.5,299.5C 398.358,298.563 398.024,297.23 399.5,295.5 Z"/></g>
<g><path style="opacity:1" fill="#1a5019" d="M 426.5,299.5 C 424.946,300.914 423.612,302.581 422.5,304.5C 422.167,304.333 421.833,304.167 421.5,304C 422.293,302.915 422.96,301.748 423.5,300.5C 421.713,299.684 420.046,298.684 418.5,297.5C 419.212,295.954 420.378,294.954 422,294.5C 423.766,296.589 425.266,298.256 426.5,299.5 Z"/></g>
<g><path style="opacity:1" fill="#1b4e1a" d="M 426.5,299.5 C 430.36,298.554 431.36,300.054 429.5,304C 428.551,304.617 427.718,304.451 427,303.5C 426.51,302.207 426.343,300.873 426.5,299.5 Z"/></g>
<g><path style="opacity:1" fill="#113211" d="M 393.5,298.5 C 395.377,299.659 395.877,301.326 395,303.5C 393.384,304.801 391.884,304.801 390.5,303.5C 391.5,303.5 392.5,303.5 393.5,303.5C 393.5,301.833 393.5,300.167 393.5,298.5 Z"/></g>
<g><path style="opacity:1" fill="#0e200b" d="M 415.5,295.5 C 418.145,298.217 418.145,301.05 415.5,304C 414.167,304.667 412.833,304.667 411.5,304C 416.987,302.13 416.82,300.63 411,299.5C 410.006,294.985 411.506,293.651 415.5,295.5 Z"/></g>
<g><path style="opacity:1" fill="#268d26" d="M 415.5,295.5 C 415.5,296.833 415.5,298.167 415.5,299.5C 413.654,299.778 412.32,299.111 411.5,297.5C 412.32,295.889 413.654,295.222 415.5,295.5 Z"/></g>
<g><path style="opacity:1" fill="#3f3f3f" d="M 499.5,351.5 C 498.842,352.398 498.176,353.398 497.5,354.5C 496.167,350.833 496.167,347.167 497.5,343.5C 498.08,345.637 499.08,347.47 500.5,349C 499.748,349.671 499.414,350.504 499.5,351.5 Z"/></g>
<g><path style="opacity:1" fill="#464646" d="M 484.5,353.5 C 482.511,354.887 480.678,354.553 479,352.5C 479.005,341.833 479.672,341.833 481,352.5C 482.011,353.337 483.178,353.67 484.5,353.5 Z"/></g>
<g><path style="opacity:1" fill="#1a1a1a" d="M 484.5,353.5 C 485.137,350.544 485.637,347.544 486,344.5C 486.667,347.167 486.667,349.833 486,352.5C 485.617,353.056 485.117,353.389 484.5,353.5 Z"/></g>
<g><path style="opacity:1" fill="#535353" d="M 487.5,346.5 C 494.232,345.482 496.232,348.148 493.5,354.5C 492.041,345.39 490.374,345.39 488.5,354.5C 487.52,351.914 487.187,349.247 487.5,346.5 Z"/></g>
<g><path style="opacity:1" fill="#4c4c4c" d="M 504.5,346.5 C 510.853,345.867 512.853,348.534 510.5,354.5C 509.041,345.39 507.374,345.39 505.5,354.5C 504.52,351.914 504.187,349.247 504.5,346.5 Z"/></g>
<g><path style="opacity:1" fill="#383838" d="M 533.5,346.5 C 538.041,346.331 538.374,346.998 534.5,348.5C 536.053,349.439 537.387,350.606 538.5,352C 537.591,354.319 535.925,354.986 533.5,354C 535.044,353.71 536.377,353.044 537.5,352C 533.801,351.513 532.468,349.679 533.5,346.5 Z"/></g>
<g><path style="opacity:1" fill="#525252" d="M 499.5,351.5 C 501.196,351.685 502.529,352.519 503.5,354C 501.588,354.279 500.254,353.446 499.5,351.5 Z"/></g>
<g><path style="opacity:1" fill="#4a4a4a" d="M 521.5,346.5 C 523.067,347.681 523.901,349.347 524,351.5C 525.141,345.617 526.808,345.284 529,350.5C 529.219,349.062 529.719,347.729 530.5,346.5C 530.833,346.833 531.167,347.167 531.5,347.5C 530.811,349.444 530.311,351.444 530,353.5C 529.586,353.957 529.086,354.291 528.5,354.5C 527.757,353.092 526.923,351.759 526,350.5C 525.71,352.044 525.044,353.377 524,354.5C 522.659,351.978 521.826,349.311 521.5,346.5 Z"/></g>
<g><path style="opacity:1" fill="#222222" d="M 514.5,346.5 C 516.144,346.286 517.644,346.62 519,347.5C 519.758,349.769 519.591,351.936 518.5,354C 516.888,354.72 515.388,354.554 514,353.5C 513.297,351.071 513.463,348.738 514.5,346.5 Z"/></g>
<g><path style="opacity:1" fill="#eeeeee" d="M 515.5,347.5 C 517.484,347.484 518.484,348.484 518.5,350.5C 517.167,354.5 515.833,354.5 514.5,350.5C 514.685,349.416 515.018,348.416 515.5,347.5 Z"/></g>
</svg>
